# 3ds Max Wavefront OBJ Exporter v0.97b - (c)2007 guruware
# File Created: 15.03.2018 18:08:51

mtllib valla.mtl

#
# object Box001
#

v  -20.0647 0.0000 12.9809
v  -20.0647 0.0000 12.5146
v  -15.8066 0.0000 12.5146
v  -15.8066 0.0000 12.9809
v  -15.8066 21.9194 12.9809
v  -20.0647 21.9194 12.9809
v  -20.0647 17.7765 12.9809
v  -20.0647 14.1410 12.9809
v  -15.8066 21.9194 12.5146
v  -20.0647 14.1586 12.5146
v  -20.0647 17.7358 12.5146
v  -20.0647 21.9194 12.5146
v  -17.8862 25.0176 12.8003
v  -18.0665 25.0176 12.8003
v  -29.4975 0.0000 12.9809
v  -29.4975 0.0000 12.5146
v  -25.2395 0.0000 12.5146
v  -25.2395 0.0000 12.9809
v  -25.2395 14.2978 12.9809
v  -25.2395 17.8665 12.9809
v  -25.2395 21.9194 12.9809
v  -29.4975 21.9194 12.9809
v  -25.2395 17.9102 12.5146
v  -25.2395 21.9194 12.5146
v  -29.4975 21.9194 12.5146
v  -25.2395 14.3215 12.5146
v  -27.3191 25.0176 12.8003
v  -27.4993 25.0176 12.8003
v  -3.2189 0.0000 12.9809
v  -3.2189 0.0000 12.5146
v  1.0392 0.0000 12.5146
v  1.0392 0.0000 12.9809
v  1.0392 21.9194 12.9809
v  -3.2189 21.9194 12.9809
v  -3.2189 17.7765 12.9809
v  -3.2189 14.1410 12.9809
v  1.0392 21.9194 12.5146
v  -3.2189 14.1586 12.5146
v  -3.2189 17.7358 12.5146
v  -3.2189 21.9194 12.5146
v  -1.0404 25.0176 12.8003
v  -1.2207 25.0176 12.8003
v  -12.6517 0.0000 12.9809
v  -12.6517 0.0000 12.5146
v  -8.3936 0.0000 12.5146
v  -8.3936 0.0000 12.9809
v  -8.3936 14.2978 12.9809
v  -8.3936 17.8665 12.9809
v  -8.3936 21.9194 12.9809
v  -12.6517 21.9194 12.9809
v  -8.3936 17.9102 12.5146
v  -8.3936 21.9194 12.5146
v  -12.6517 21.9194 12.5146
v  -8.3936 14.3215 12.5146
v  -10.4733 25.0176 12.8003
v  -10.6535 25.0176 12.8003
v  14.5548 0.0000 12.9809
v  14.5548 0.0000 12.5146
v  18.8129 0.0000 12.5146
v  18.8129 0.0000 12.9809
v  18.8129 21.9194 12.9809
v  14.5548 21.9194 12.9809
v  14.5548 17.7765 12.9809
v  14.5548 14.1410 12.9809
v  18.8129 21.9194 12.5146
v  14.5548 14.1586 12.5146
v  14.5548 17.7358 12.5146
v  14.5548 21.9194 12.5146
v  16.7333 25.0176 12.8003
v  16.5530 25.0176 12.8003
v  5.1220 0.0000 12.9809
v  5.1220 0.0000 12.5146
v  9.3801 0.0000 12.5146
v  9.3801 0.0000 12.9809
v  9.3801 14.2978 12.9809
v  9.3801 17.8665 12.9809
v  9.3801 21.9194 12.9809
v  5.1220 21.9194 12.9809
v  9.3801 17.9102 12.5146
v  9.3801 21.9194 12.5146
v  5.1220 21.9194 12.5146
v  9.3801 14.3215 12.5146
v  7.3004 25.0176 12.8003
v  7.1202 25.0176 12.8003
# 84 vertices

vn 0.0000 -1.0000 -0.0000
vn 0.0000 0.0000 1.0000
vn 1.0000 0.0000 -0.0000
vn 0.0000 0.0000 -1.0000
vn -1.0000 0.0000 -0.0000
vn 0.0000 0.0582 0.9983
vn 0.0000 0.0918 -0.9958
vn -0.8404 0.5420 -0.0000
vn 0.8303 0.5573 -0.0000
vn 0.0336 0.9957 -0.0868
vn 0.0173 0.9955 0.0933
vn -0.0303 -0.9988 -0.0378
vn -0.0314 -0.9982 -0.0507
# 13 vertex normals

vt 1.0000 0.0000 0.0000
vt 1.0000 1.0000 0.0000
vt 0.0000 1.0000 0.0000
vt 0.0000 0.0000 0.0000
vt 0.0000 0.8110 0.0000
vt 0.0000 0.6451 0.0000
vt 1.0000 0.6308 0.0000
vt 1.0000 0.8091 0.0000
vt 1.0000 0.8110 0.0000
vt 0.0000 0.8091 0.0000
vt 1.0000 0.6523 0.0000
vt 1.0000 0.8225 0.0000
vt 1.0000 0.8245 0.0000
vt 0.0000 0.8225 0.0000
vt 0.0000 0.8245 0.0000
vt 0.0000 0.6534 0.0000
vt 1.0000 0.6534 0.0000
vt 0.0000 0.6523 0.0000
vt 0.0000 0.6308 0.0000
vt 1.0000 0.6451 0.0000
vt 0.0000 0.8011 0.0000
vt 0.0000 0.2049 0.0000
vt 1.0000 0.2007 0.0000
vt 1.0000 0.8037 0.0000
# 24 texture coords

g Box001
usemtl wire_228184153
s 2
f 1/1/1 2/2/1 3/3/1 
f 3/3/1 4/4/1 1/1/1 
s 8
f 1/4/2 4/1/2 5/2/2 
f 5/2/2 6/3/2 7/5/2 
f 5/2/2 7/5/2 8/6/2 
f 1/4/2 5/2/2 8/6/2 
s 16
f 4/4/3 3/1/3 9/2/3 
f 9/2/3 5/3/3 4/4/3 
s 32
f 3/4/4 2/1/4 10/7/4 
f 3/4/4 10/7/4 11/8/4 
f 3/4/4 11/8/4 12/2/4 
f 3/4/4 12/2/4 9/3/4 
s 64
f 7/9/5 6/2/5 12/3/5 
f 12/3/5 11/10/5 7/9/5 
s off
f 6/3/6 5/2/6 13/2/6 
f 13/2/6 14/3/6 6/3/6 
f 9/3/7 12/2/7 14/2/7 
f 14/2/7 13/3/7 9/3/7 
f 6/2/8 14/3/8 12/2/8 
f 9/2/9 13/3/9 5/2/9 
s 2
f 15/1/1 16/2/1 17/3/1 
f 17/3/1 18/4/1 15/1/1 
s 8
f 15/4/2 18/1/2 19/11/2 
f 15/4/2 19/11/2 20/12/2 
f 15/4/2 20/12/2 21/2/2 
f 15/4/2 21/2/2 22/3/2 
s 16
f 23/13/3 24/2/3 21/3/3 
f 21/3/3 20/14/3 23/13/3 
s 32
f 17/4/4 16/1/4 25/2/4 
f 25/2/4 24/3/4 23/15/4 
f 25/2/4 23/15/4 26/16/4 
f 17/4/4 25/2/4 26/16/4 
s 64
f 16/4/5 15/1/5 22/2/5 
f 22/2/5 25/3/5 16/4/5 
s off
f 22/3/6 21/2/6 27/2/6 
f 27/2/6 28/3/6 22/3/6 
f 24/3/7 25/2/7 28/2/7 
f 28/2/7 27/3/7 24/3/7 
f 22/2/8 28/3/8 25/2/8 
f 24/2/9 27/3/9 21/2/9 
s 16
f 18/4/3 17/1/3 26/17/3 
f 26/17/3 19/18/3 18/4/3 
s 64
f 10/19/5 2/4/5 1/1/5 
f 1/1/5 8/20/5 10/19/5 
s 8
f 7/12/2 20/21/2 19/22/2 
f 19/22/2 8/11/2 7/12/2 
s 32
f 26/23/4 23/24/4 11/15/4 
f 11/15/4 10/16/4 26/23/4 
s off
f 7/12/10 11/10/10 23/24/10 
f 23/24/11 20/14/11 7/12/11 
f 10/16/12 8/20/12 19/22/12 
f 19/22/13 26/17/13 10/16/13 
s 2
f 29/1/1 30/2/1 31/3/1 
f 31/3/1 32/4/1 29/1/1 
s 8
f 29/4/2 32/1/2 33/2/2 
f 33/2/2 34/3/2 35/5/2 
f 33/2/2 35/5/2 36/6/2 
f 29/4/2 33/2/2 36/6/2 
s 16
f 32/4/3 31/1/3 37/2/3 
f 37/2/3 33/3/3 32/4/3 
s 32
f 31/4/4 30/1/4 38/7/4 
f 31/4/4 38/7/4 39/8/4 
f 31/4/4 39/8/4 40/2/4 
f 31/4/4 40/2/4 37/3/4 
s 64
f 35/9/5 34/2/5 40/3/5 
f 40/3/5 39/10/5 35/9/5 
s off
f 34/3/6 33/2/6 41/2/6 
f 41/2/6 42/3/6 34/3/6 
f 37/3/7 40/2/7 42/2/7 
f 42/2/7 41/3/7 37/3/7 
f 34/2/8 42/3/8 40/2/8 
f 37/2/9 41/3/9 33/2/9 
s 2
f 43/1/1 44/2/1 45/3/1 
f 45/3/1 46/4/1 43/1/1 
s 8
f 43/4/2 46/1/2 47/11/2 
f 43/4/2 47/11/2 48/12/2 
f 43/4/2 48/12/2 49/2/2 
f 43/4/2 49/2/2 50/3/2 
s 16
f 51/13/3 52/2/3 49/3/3 
f 49/3/3 48/14/3 51/13/3 
s 32
f 45/4/4 44/1/4 53/2/4 
f 53/2/4 52/3/4 51/15/4 
f 53/2/4 51/15/4 54/16/4 
f 45/4/4 53/2/4 54/16/4 
s 64
f 44/4/5 43/1/5 50/2/5 
f 50/2/5 53/3/5 44/4/5 
s off
f 50/3/6 49/2/6 55/2/6 
f 55/2/6 56/3/6 50/3/6 
f 52/3/7 53/2/7 56/2/7 
f 56/2/7 55/3/7 52/3/7 
f 50/2/8 56/3/8 53/2/8 
f 52/2/9 55/3/9 49/2/9 
s 16
f 46/4/3 45/1/3 54/17/3 
f 54/17/3 47/18/3 46/4/3 
s 64
f 38/19/5 30/4/5 29/1/5 
f 29/1/5 36/20/5 38/19/5 
s 8
f 35/12/2 48/21/2 47/22/2 
f 47/22/2 36/11/2 35/12/2 
s 32
f 54/23/4 51/24/4 39/15/4 
f 39/15/4 38/16/4 54/23/4 
s off
f 35/12/10 39/10/10 51/24/10 
f 51/24/11 48/14/11 35/12/11 
f 38/16/12 36/20/12 47/22/12 
f 47/22/13 54/17/13 38/16/13 
s 2
f 57/1/1 58/2/1 59/3/1 
f 59/3/1 60/4/1 57/1/1 
s 8
f 57/4/2 60/1/2 61/2/2 
f 61/2/2 62/3/2 63/5/2 
f 61/2/2 63/5/2 64/6/2 
f 57/4/2 61/2/2 64/6/2 
s 16
f 60/4/3 59/1/3 65/2/3 
f 65/2/3 61/3/3 60/4/3 
s 32
f 59/4/4 58/1/4 66/7/4 
f 59/4/4 66/7/4 67/8/4 
f 59/4/4 67/8/4 68/2/4 
f 59/4/4 68/2/4 65/3/4 
s 64
f 63/9/5 62/2/5 68/3/5 
f 68/3/5 67/10/5 63/9/5 
s off
f 62/3/6 61/2/6 69/2/6 
f 69/2/6 70/3/6 62/3/6 
f 65/3/7 68/2/7 70/2/7 
f 70/2/7 69/3/7 65/3/7 
f 62/2/8 70/3/8 68/2/8 
f 65/2/9 69/3/9 61/2/9 
s 2
f 71/1/1 72/2/1 73/3/1 
f 73/3/1 74/4/1 71/1/1 
s 8
f 71/4/2 74/1/2 75/11/2 
f 71/4/2 75/11/2 76/12/2 
f 71/4/2 76/12/2 77/2/2 
f 71/4/2 77/2/2 78/3/2 
s 16
f 79/13/3 80/2/3 77/3/3 
f 77/3/3 76/14/3 79/13/3 
s 32
f 73/4/4 72/1/4 81/2/4 
f 81/2/4 80/3/4 79/15/4 
f 81/2/4 79/15/4 82/16/4 
f 73/4/4 81/2/4 82/16/4 
s 64
f 72/4/5 71/1/5 78/2/5 
f 78/2/5 81/3/5 72/4/5 
s off
f 78/3/6 77/2/6 83/2/6 
f 83/2/6 84/3/6 78/3/6 
f 80/3/7 81/2/7 84/2/7 
f 84/2/7 83/3/7 80/3/7 
f 78/2/8 84/3/8 81/2/8 
f 80/2/9 83/3/9 77/2/9 
s 16
f 74/4/3 73/1/3 82/17/3 
f 82/17/3 75/18/3 74/4/3 
s 64
f 66/19/5 58/4/5 57/1/5 
f 57/1/5 64/20/5 66/19/5 
s 8
f 63/12/2 76/21/2 75/22/2 
f 75/22/2 64/11/2 63/12/2 
s 32
f 82/23/4 79/24/4 67/15/4 
f 67/15/4 66/16/4 82/23/4 
s off
f 63/12/10 67/10/10 79/24/10 
f 79/24/11 76/14/11 63/12/11 
f 66/16/12 64/20/12 75/22/12 
f 75/22/13 82/17/13 66/16/13 
# 156 faces

