# 3ds Max Wavefront OBJ Exporter v0.97b - (c)2007 guruware
# File Created: 15.03.2018 16:35:47

mtllib navesita1.mtl

#
# object Box001
#

#
# object Box002
#

v  4.5419 72.8018 -28.1457
v  5.0515 73.2251 4.2068
v  -12.0060 72.6437 5.4759
v  -12.2828 72.7789 -29.0098
v  -20.6825 87.2213 18.8213
v  12.9952 87.2213 18.8213
v  12.9952 145.5215 18.8213
v  -20.6825 145.5215 18.8213
v  49.0740 87.9537 -35.2522
v  28.2055 87.2213 -41.9462
v  28.2055 88.6651 -41.9462
v  47.6501 89.9393 -36.8246
v  -20.6825 85.1398 -64.7208
v  -20.6825 145.5215 -23.8374
v  12.9952 145.5215 -23.8374
v  -20.6825 87.2213 -41.9462
v  12.9952 87.2213 -41.9462
v  12.9952 87.2432 -69.4658
v  -33.9730 87.2213 -41.9462
v  -56.3661 86.7660 -36.2557
v  -57.3350 89.4767 -40.3123
v  -33.9730 89.0648 -41.9462
v  12.9952 145.5215 3.1282
v  1.4262 168.4661 -10.5219
v  1.4262 168.4661 18.8213
v  -20.6825 145.5215 2.0987
v  -9.6651 168.4661 18.8213
v  -9.6651 168.4661 -10.5219
v  -6.8853 168.4661 18.8213
v  -7.1388 168.4661 -10.5219
v  -20.6825 145.5215 -15.5947
v  -9.6651 168.4661 -6.0755
v  1.4262 168.4661 -6.0755
v  12.9952 145.5215 -17.1104
v  -1.8576 168.4661 -10.5219
v  12.9952 145.5215 14.3750
v  -20.6825 145.5215 14.3750
v  1.4262 168.4661 14.3750
v  -9.6651 168.4661 14.3750
v  -0.8536 168.4661 18.8213
v  -4.7078 172.6144 -10.5219
v  -3.9406 172.6144 18.8213
v  -15.1264 87.6303 7.8204
v  -14.0580 87.6587 -32.2148
v  5.5371 87.6905 10.4063
v  7.9128 87.2213 -35.0401
v  -20.1591 82.3370 -44.7527
v  -19.6288 82.2664 21.3115
v  12.0719 81.9433 -43.0972
v  13.0481 82.5699 18.8802
v  -20.1628 80.3141 -44.7280
v  -19.6325 80.2435 21.3362
v  12.0682 79.9204 -43.0725
v  13.0444 80.5470 18.9049
# 54 vertices

vn 0.0112 -0.9999 0.0008
vn 0.0350 -0.9993 0.0125
vn 0.0247 -0.9997 0.0074
vn 0.0016 -1.0000 -0.0039
vn 0.0000 0.0000 1.0000
vn 0.2584 -0.4523 -0.8536
vn 0.3054 0.0000 -0.9522
vn 0.3043 -0.0323 -0.9520
vn 0.2525 -0.4829 -0.8385
vn 0.8998 -0.2696 -0.3431
vn 0.0000 0.5607 -0.8280
vn -0.0833 0.4164 -0.9054
vn 0.8215 -0.3301 -0.4650
vn -0.7659 0.1907 -0.6140
vn -1.0000 0.0000 -0.0000
vn -0.0801 -0.1116 -0.9905
vn -0.1182 -0.8384 -0.5320
vn -0.1184 -0.8127 -0.5706
vn -0.0698 0.0000 -0.9976
vn 0.8929 0.4502 -0.0000
vn -0.9015 0.4329 0.0000
vn -0.9015 0.4329 -0.0000
vn 0.0000 1.0000 -0.0000
vn 0.0000 0.3832 -0.9237
vn -0.0409 0.4162 -0.9083
vn 0.9015 -0.4329 -0.0000
vn 0.0000 -1.0000 -0.0000
vn -0.0000 -1.0000 0.0000
vn -0.8929 -0.4502 -0.0000
vn -0.0000 1.0000 0.0000
vn 0.8239 0.5661 -0.0282
vn 0.8021 0.5969 -0.0210
vn -0.8154 0.5788 0.0070
vn -0.8625 0.5055 0.0226
vn 1.0000 0.0000 -0.0000
vn 0.0945 -0.9955 -0.0008
vn 0.0000 0.0000 -1.0000
vn 0.7273 0.5352 -0.4296
vn 0.1565 0.6390 -0.7532
vn 0.8473 0.5310 -0.0000
vn 0.8304 0.5548 -0.0515
vn 0.0000 -0.7216 0.6923
vn -0.1847 -0.7319 0.6559
vn -0.8369 0.5473 0.0000
vn -0.9081 0.2141 0.3599
vn -0.6809 0.5434 -0.4910
vn -0.0438 0.6209 -0.7827
vn 0.0000 -0.9958 0.0910
vn -0.8637 0.0000 -0.5040
vn 0.1188 -0.7165 0.6874
vn -0.0000 -0.9968 -0.0798
vn 0.0457 -0.9989 -0.0139
vn 0.0255 -0.9993 -0.0279
vn 0.0252 -0.9993 0.0281
vn 0.0345 -0.9992 0.0178
vn -0.0341 -0.9992 -0.0229
vn -0.0283 -0.9992 -0.0273
vn -0.0083 -1.0000 0.0038
vn -0.0126 -0.9999 -0.0075
vn -0.6378 0.7700 -0.0165
vn -0.7575 0.6529 0.0068
vn -0.0566 0.8215 -0.5674
vn 0.0319 0.9144 -0.4036
vn 0.5477 0.8365 0.0200
vn 0.7713 0.6362 -0.0186
vn -0.0472 0.9335 0.3554
vn 0.0290 0.8667 0.4980
vn -1.0000 0.0019 0.0080
vn 0.0511 -0.0123 -0.9986
vn 0.9999 -0.0020 -0.0157
vn 0.0741 0.0121 0.9972
vn -0.6961 -0.7179 0.0048
vn -0.7029 -0.7113 0.0029
vn 0.0108 -0.9047 -0.4260
vn 0.0239 -0.8968 -0.4419
vn 0.6787 -0.7344 -0.0033
vn 0.6858 -0.7278 -0.0013
vn 0.0416 -0.8931 0.4480
vn 0.0620 -0.9064 0.4178
# 79 vertex normals

vt 0.2699 0.6193 0.0000
vt 0.2836 0.3314 0.0000
vt 0.6765 0.3296 0.0000
vt 0.6557 0.5932 0.0000
vt 0.0000 0.0000 0.0000
vt 1.0000 0.0000 0.0000
vt 1.0000 1.0000 0.0000
vt 0.0000 1.0000 0.0000
vt 1.0000 0.0716 0.0000
vt 0.0732 1.0000 0.0000
vt 1.0000 0.0949 0.0000
vt 0.0000 0.0716 0.0000
vt 0.9225 1.0000 0.0000
vt 0.0000 0.0949 0.0000
vt 0.7494 1.0000 0.0000
vt 0.2278 1.0000 0.0000
vt 0.7039 1.0000 0.0000
vt 0.2056 1.0000 0.0000
# 18 texture coords

g Box002
usemtl 02___Default
s 2
f 1/1/1 2/2/2 3/3/3 
f 3/3/3 4/4/4 1/1/1 
s 8
f 5/5/5 6/6/5 7/7/5 
f 7/7/5 8/8/5 5/5/5 
s 16
f 9/8/6 10/6/7 11/9/8 
f 11/9/8 12/10/9 9/8/6 
s 32
f 13/11/10 14/7/11 15/8/12 
f 16/6/13 13/11/10 15/8/12 
f 17/5/14 16/6/13 15/8/12 
f 17/5/14 15/8/12 18/12/15 
s 64
f 19/5/16 20/7/17 21/13/18 
f 21/13/18 22/14/19 19/5/16 
s off
f 23/10/20 15/7/20 24/7/20 
f 7/8/20 23/10/20 24/7/20 
f 7/8/20 24/7/20 25/8/20 
f 26/13/21 8/7/21 27/7/21 
f 14/8/22 26/13/22 27/7/22 
f 14/8/22 27/7/22 28/8/22 
f 27/7/23 29/15/23 30/16/23 
f 30/16/23 28/8/23 27/7/23 
f 31/7/24 32/8/24 33/7/24 
f 33/7/25 34/7/25 31/7/25 
f 15/7/23 14/7/23 31/7/23 
f 31/7/23 34/7/23 15/7/23 
f 14/7/26 28/8/26 32/8/26 
f 32/8/26 31/7/26 14/7/26 
f 35/17/27 24/7/27 33/7/27 
f 30/16/27 35/17/27 33/7/27 
f 28/8/28 30/16/28 33/7/28 
f 28/8/27 33/7/27 32/8/27 
f 24/7/29 15/7/29 34/7/29 
f 34/7/29 33/7/29 24/7/29 
f 8/7/23 7/7/23 36/7/23 
f 36/7/23 37/7/23 8/7/23 
f 7/7/29 25/8/29 38/8/29 
f 38/8/29 36/7/29 7/7/29 
f 27/7/26 8/7/26 37/7/26 
f 37/7/26 39/7/26 27/7/26 
f 39/7/5 37/7/5 36/7/5 
f 36/7/5 38/8/5 39/7/5 
f 25/8/23 24/7/23 35/17/23 
f 35/17/30 40/18/30 25/8/30 
f 40/18/31 35/17/31 41/17/31 
f 41/17/32 42/18/32 40/18/32 
f 30/16/33 29/15/33 42/15/33 
f 42/15/34 41/16/34 30/16/34 
s 64
f 16/5/15 5/6/15 8/7/15 
s 16
f 7/8/35 6/5/35 17/6/35 
s 64
f 26/13/15 14/8/15 13/14/15 
s 16
f 18/9/35 15/7/35 23/10/35 
s off
f 17/6/36 18/9/36 11/9/36 
f 11/9/37 10/6/37 17/6/37 
f 11/9/38 18/9/38 23/10/38 
f 23/10/39 12/10/39 11/9/39 
f 23/10/40 7/8/40 9/8/40 
f 9/8/41 12/10/41 23/10/41 
f 7/8/42 17/6/42 10/6/42 
f 10/6/43 9/8/43 7/8/43 
f 8/7/44 26/13/44 21/13/44 
f 21/13/45 20/7/45 8/7/45 
f 26/13/46 13/14/46 22/14/46 
f 22/14/47 21/13/47 26/13/47 
f 13/14/48 16/5/48 19/5/48 
f 19/5/49 22/14/49 13/14/49 
f 16/5/50 8/7/50 20/7/50 
f 20/7/51 19/5/51 16/5/51 
s 2
f 43/3/52 5/6/53 16/7/54 
f 16/7/54 44/4/55 43/3/52 
f 45/2/56 6/5/57 5/6/53 
f 5/6/53 43/3/52 45/2/56 
f 17/8/58 46/1/59 44/4/55 
f 44/4/55 16/7/54 17/8/58 
f 6/5/57 45/2/56 46/1/59 
f 46/1/59 17/8/58 6/5/57 
s off
f 43/3/60 44/4/60 47/4/60 
f 47/4/61 48/3/61 43/3/61 
f 44/4/62 46/1/62 49/1/62 
f 49/1/63 47/4/63 44/4/63 
f 46/1/64 45/2/64 50/2/64 
f 50/2/65 49/1/65 46/1/65 
f 45/2/66 43/3/66 48/3/66 
f 48/3/67 50/2/67 45/2/67 
f 48/3/68 47/4/68 51/4/68 
f 51/4/68 52/3/68 48/3/68 
f 47/4/69 49/1/69 53/1/69 
f 53/1/69 51/4/69 47/4/69 
f 49/1/70 50/2/70 54/2/70 
f 54/2/70 53/1/70 49/1/70 
f 50/2/71 48/3/71 52/3/71 
f 52/3/71 54/2/71 50/2/71 
f 52/3/72 51/4/72 4/4/72 
f 4/4/73 3/3/73 52/3/73 
f 51/4/74 53/1/74 1/1/74 
f 1/1/75 4/4/75 51/4/75 
f 53/1/76 54/2/76 2/2/76 
f 2/2/77 1/1/77 53/1/77 
f 54/2/78 52/3/78 3/3/78 
f 3/3/79 2/2/79 54/2/79 
# 98 faces

