# 3ds Max Wavefront OBJ Exporter v0.97b - (c)2007 guruware
# File Created: 15.03.2018 16:34:13

mtllib navesita.mtl

#
# object Box001
#

#
# object Box002
#

v  5.3835 60.8554 -45.7912
v  5.9442 61.3993 23.2971
v  -12.8256 60.6521 26.0074
v  -13.1302 60.8259 -47.6366
v  -22.3730 79.3873 54.5063
v  14.6854 79.3873 54.5063
v  14.6854 154.3147 54.5063
v  -22.3730 154.3147 54.5063
v  54.3860 80.3286 -60.9670
v  31.4226 79.3873 -75.2620
v  31.4226 81.2429 -75.2620
v  52.8191 82.8804 -64.3249
v  -22.3730 76.7121 -123.8969
v  -22.3730 154.3147 -36.5909
v  14.6854 154.3147 -36.5909
v  -22.3730 79.3873 -75.2620
v  14.6854 79.3873 -75.2620
v  14.6854 79.4155 -134.0298
v  -36.9977 79.3873 -75.2620
v  -61.6387 78.8022 -63.1099
v  -62.7048 82.2859 -71.7728
v  -36.9977 81.7565 -75.2620
v  14.6854 154.3147 20.9937
v  1.9551 183.8030 -8.1558
v  1.9551 183.8030 54.5063
v  -22.3730 154.3147 18.7954
v  -10.2496 183.8030 54.5063
v  -10.2496 183.8030 -8.1558
v  -7.1908 183.8030 54.5063
v  -7.4697 183.8030 -8.1558
v  -22.3730 154.3147 -18.9887
v  -10.2496 183.8030 1.3394
v  1.9551 183.8030 1.3394
v  14.6854 154.3147 -22.2254
v  -1.6584 183.8030 -8.1558
v  14.6854 154.3147 45.0112
v  -22.3730 154.3147 45.0112
v  1.9551 183.8030 45.0112
v  -10.2496 183.8030 45.0112
v  -0.5536 183.8030 54.5063
v  -4.7947 189.1345 -8.1558
v  -3.9505 189.1345 54.5063
v  -16.2592 79.9129 31.0139
v  -15.0835 79.9494 -54.4807
v  6.4786 79.9902 36.5362
v  9.0928 79.3873 -60.5141
v  -21.7971 73.1100 -81.2552
v  -21.2136 73.0193 59.8240
v  13.6694 72.6040 -77.7200
v  14.7436 73.4093 54.6320
v  -21.8011 70.5101 -81.2024
v  -21.2176 70.4194 59.8768
v  13.6654 70.0041 -77.6672
v  14.7396 70.8095 54.6848
# 54 vertices

vn 0.0078 -1.0000 -0.0009
vn 0.0409 -0.9991 0.0075
vn 0.0340 -0.9994 0.0058
vn 0.0018 -1.0000 -0.0024
vn 0.0000 0.0000 1.0000
vn 0.4072 -0.5959 -0.6922
vn 0.5285 0.0000 -0.8489
vn 0.5263 -0.0513 -0.8487
vn 0.3890 -0.6370 -0.6656
vn 0.9508 -0.1476 -0.2723
vn 0.0000 0.7474 -0.6644
vn -0.0765 0.6277 -0.7747
vn 0.8661 -0.1897 -0.4624
vn -0.7933 0.2792 -0.5410
vn -1.0000 0.0000 -0.0000
vn -0.1538 -0.1987 -0.9679
vn -0.1520 -0.9233 -0.3526
vn -0.1563 -0.9023 -0.4017
vn -0.1345 0.0000 -0.9909
vn 0.9181 0.3964 -0.0000
vn -0.9249 0.3802 0.0000
vn -0.9249 0.3802 -0.0000
vn 0.0000 1.0000 -0.0000
vn 0.0000 0.5676 -0.8233
vn -0.0693 0.6043 -0.7937
vn 0.9249 -0.3802 -0.0000
vn 0.0000 -1.0000 -0.0000
vn -0.0000 -1.0000 0.0000
vn -0.9181 -0.3964 -0.0000
vn -0.0000 1.0000 0.0000
vn 0.8618 0.5070 -0.0152
vn 0.8433 0.5373 -0.0114
vn -0.8545 0.5194 0.0038
vn -0.8937 0.4484 0.0120
vn 1.0000 0.0000 -0.0000
vn 0.1102 -0.9939 -0.0005
vn 0.0000 0.0000 -1.0000
vn 0.8193 0.5162 -0.2494
vn 0.2272 0.7943 -0.5635
vn 0.8812 0.4728 -0.0000
vn 0.8677 0.4963 -0.0277
vn 0.0000 -0.8660 0.5000
vn -0.2511 -0.8519 0.4595
vn -0.8725 0.4886 0.0000
vn -0.9612 0.1940 0.1963
vn -0.7894 0.5393 -0.2933
vn -0.0655 0.7950 -0.6031
vn 0.0000 -0.9985 0.0549
vn -0.9576 0.0000 -0.2880
vn 0.1653 -0.8541 0.4931
vn -0.0000 -0.9988 -0.0481
vn 0.0582 -0.9983 -0.0071
vn 0.0179 -0.9996 -0.0217
vn 0.0166 -0.9996 0.0213
vn 0.0450 -0.9990 0.0075
vn -0.0434 -0.9990 -0.0109
vn -0.0199 -0.9995 -0.0234
vn -0.0098 -0.9999 0.0068
vn -0.0125 -0.9999 -0.0042
vn -0.6953 0.7187 -0.0093
vn -0.8046 0.5938 0.0037
vn -0.0741 0.9209 -0.3828
vn 0.0394 0.9657 -0.2566
vn 0.6074 0.7943 0.0114
vn 0.8168 0.5768 -0.0101
vn -0.0575 0.9731 0.2230
vn 0.0369 0.9444 0.3266
vn -1.0000 0.0016 0.0041
vn 0.0989 -0.0204 -0.9949
vn 1.0000 -0.0017 -0.0081
vn 0.1427 0.0199 0.9896
vn -0.7496 -0.6619 0.0027
vn -0.7558 -0.6548 0.0016
vn 0.0134 -0.9620 -0.2726
vn 0.0299 -0.9583 -0.2842
vn 0.7336 -0.6796 -0.0018
vn 0.7401 -0.6725 -0.0007
vn 0.0520 -0.9560 0.2886
vn 0.0767 -0.9608 0.2665
# 79 vertex normals

vt 0.2699 0.6193 0.0000
vt 0.2836 0.3314 0.0000
vt 0.6765 0.3296 0.0000
vt 0.6557 0.5932 0.0000
vt 0.0000 0.0000 0.0000
vt 1.0000 0.0000 0.0000
vt 1.0000 1.0000 0.0000
vt 0.0000 1.0000 0.0000
vt 1.0000 0.0716 0.0000
vt 0.0732 1.0000 0.0000
vt 1.0000 0.0949 0.0000
vt 0.0000 0.0716 0.0000
vt 0.9225 1.0000 0.0000
vt 0.0000 0.0949 0.0000
vt 0.7494 1.0000 0.0000
vt 0.2278 1.0000 0.0000
vt 0.7039 1.0000 0.0000
vt 0.2056 1.0000 0.0000
# 18 texture coords

g Box002
usemtl 02___Default
s 2
f 1/1/1 2/2/2 3/3/3 
f 3/3/3 4/4/4 1/1/1 
s 8
f 5/5/5 6/6/5 7/7/5 
f 7/7/5 8/8/5 5/5/5 
s 16
f 9/8/6 10/6/7 11/9/8 
f 11/9/8 12/10/9 9/8/6 
s 32
f 13/11/10 14/7/11 15/8/12 
f 16/6/13 13/11/10 15/8/12 
f 17/5/14 16/6/13 15/8/12 
f 17/5/14 15/8/12 18/12/15 
s 64
f 19/5/16 20/7/17 21/13/18 
f 21/13/18 22/14/19 19/5/16 
s off
f 23/10/20 15/7/20 24/7/20 
f 7/8/20 23/10/20 24/7/20 
f 7/8/20 24/7/20 25/8/20 
f 26/13/21 8/7/21 27/7/21 
f 14/8/22 26/13/22 27/7/22 
f 14/8/22 27/7/22 28/8/22 
f 27/7/23 29/15/23 30/16/23 
f 30/16/23 28/8/23 27/7/23 
f 31/7/24 32/8/24 33/7/24 
f 33/7/25 34/7/25 31/7/25 
f 15/7/23 14/7/23 31/7/23 
f 31/7/23 34/7/23 15/7/23 
f 14/7/26 28/8/26 32/8/26 
f 32/8/26 31/7/26 14/7/26 
f 35/17/27 24/7/27 33/7/27 
f 30/16/27 35/17/27 33/7/27 
f 28/8/28 30/16/28 33/7/28 
f 28/8/27 33/7/27 32/8/27 
f 24/7/29 15/7/29 34/7/29 
f 34/7/29 33/7/29 24/7/29 
f 8/7/23 7/7/23 36/7/23 
f 36/7/23 37/7/23 8/7/23 
f 7/7/29 25/8/29 38/8/29 
f 38/8/29 36/7/29 7/7/29 
f 27/7/26 8/7/26 37/7/26 
f 37/7/26 39/7/26 27/7/26 
f 39/7/5 37/7/5 36/7/5 
f 36/7/5 38/8/5 39/7/5 
f 25/8/23 24/7/23 35/17/23 
f 35/17/30 40/18/30 25/8/30 
f 40/18/31 35/17/31 41/17/31 
f 41/17/32 42/18/32 40/18/32 
f 30/16/33 29/15/33 42/15/33 
f 42/15/34 41/16/34 30/16/34 
s 64
f 16/5/15 5/6/15 8/7/15 
s 16
f 7/8/35 6/5/35 17/6/35 
s 64
f 26/13/15 14/8/15 13/14/15 
s 16
f 18/9/35 15/7/35 23/10/35 
s off
f 17/6/36 18/9/36 11/9/36 
f 11/9/37 10/6/37 17/6/37 
f 11/9/38 18/9/38 23/10/38 
f 23/10/39 12/10/39 11/9/39 
f 23/10/40 7/8/40 9/8/40 
f 9/8/41 12/10/41 23/10/41 
f 7/8/42 17/6/42 10/6/42 
f 10/6/43 9/8/43 7/8/43 
f 8/7/44 26/13/44 21/13/44 
f 21/13/45 20/7/45 8/7/45 
f 26/13/46 13/14/46 22/14/46 
f 22/14/47 21/13/47 26/13/47 
f 13/14/48 16/5/48 19/5/48 
f 19/5/49 22/14/49 13/14/49 
f 16/5/50 8/7/50 20/7/50 
f 20/7/51 19/5/51 16/5/51 
s 2
f 43/3/52 5/6/53 16/7/54 
f 16/7/54 44/4/55 43/3/52 
f 45/2/56 6/5/57 5/6/53 
f 5/6/53 43/3/52 45/2/56 
f 17/8/58 46/1/59 44/4/55 
f 44/4/55 16/7/54 17/8/58 
f 6/5/57 45/2/56 46/1/59 
f 46/1/59 17/8/58 6/5/57 
s off
f 43/3/60 44/4/60 47/4/60 
f 47/4/61 48/3/61 43/3/61 
f 44/4/62 46/1/62 49/1/62 
f 49/1/63 47/4/63 44/4/63 
f 46/1/64 45/2/64 50/2/64 
f 50/2/65 49/1/65 46/1/65 
f 45/2/66 43/3/66 48/3/66 
f 48/3/67 50/2/67 45/2/67 
f 48/3/68 47/4/68 51/4/68 
f 51/4/68 52/3/68 48/3/68 
f 47/4/69 49/1/69 53/1/69 
f 53/1/69 51/4/69 47/4/69 
f 49/1/70 50/2/70 54/2/70 
f 54/2/70 53/1/70 49/1/70 
f 50/2/71 48/3/71 52/3/71 
f 52/3/71 54/2/71 50/2/71 
f 52/3/72 51/4/72 4/4/72 
f 4/4/73 3/3/73 52/3/73 
f 51/4/74 53/1/74 1/1/74 
f 1/1/75 4/4/75 51/4/75 
f 53/1/76 54/2/76 2/2/76 
f 2/2/77 1/1/77 53/1/77 
f 54/2/78 52/3/78 3/3/78 
f 3/3/79 2/2/79 54/2/79 
# 98 faces

