# 3ds Max Wavefront OBJ Exporter v0.97b - (c)2007 guruware
# File Created: 14.03.2018 01:26:51

mtllib Mesa3.mtl

#
# object Table
#

v  0.3570 8.1164 17.3033
v  0.3570 8.1164 19.4538
v  4.2536 8.1164 19.4538
v  4.2536 8.1164 17.3033
v  4.2536 0.8514 19.4538
v  0.3570 0.8514 19.4538
v  0.3570 0.8514 17.3033
v  4.2536 0.8514 17.3033
v  2.1201 8.1164 5.5743
v  2.1201 8.1164 8.2368
v  4.5004 8.1164 8.2368
v  4.5004 8.1164 5.5743
v  4.5004 0.8514 8.2368
v  2.1201 0.8514 8.2368
v  2.1201 0.8514 5.5743
v  4.5004 0.8514 5.5743
v  -19.1812 8.1164 5.5743
v  -19.1812 8.1164 8.0257
v  -17.0401 8.1164 8.0257
v  -16.7507 8.1164 5.5743
v  -17.0401 0.8514 8.0257
v  -19.1813 0.8514 8.0257
v  -19.1813 0.8514 5.5743
v  -17.0401 0.8514 5.5743
v  -16.5403 8.1164 19.4538
v  -16.3358 8.1164 17.0637
v  -18.5713 8.1164 17.0637
v  -19.6619 8.1164 19.4538
v  -19.5594 0.9927 19.4538
v  -16.4301 0.8514 19.4538
v  -18.5713 0.8514 17.0049
v  -16.4301 0.8514 17.0049
v  4.2536 13.7736 19.4538
v  4.2536 13.7736 5.2864
v  -20.3095 13.7736 5.2864
v  -20.3095 13.7736 19.4538
v  4.5004 8.1164 5.2864
v  -20.3095 8.1164 5.2864
v  -20.3095 8.1164 19.4538
# 39 vertices

vn -0.5774 0.5774 -0.5774
vn -0.5774 0.5774 0.5774
vn 0.5774 0.5774 0.5774
vn 0.5774 0.5774 -0.5774
vn 0.5774 -0.5774 0.5774
vn -0.5774 -0.5774 0.5774
vn -0.5774 -0.5774 -0.5774
vn 0.5774 -0.5774 -0.5774
vn 0.5501 0.5766 0.6041
vn 0.6258 0.5603 -0.5426
vn 0.5755 -0.5804 -0.5761
vn 0.5530 0.5806 0.5976
vn 0.6083 0.5714 -0.5508
vn -0.4357 0.6032 -0.6681
vn -0.7023 0.5537 0.4474
vn -0.6981 -0.5392 0.4710
vn 0.5702 -0.5875 0.5742
vn -0.4474 -0.6178 -0.6466
vn 0.5751 -0.5831 -0.5738
vn 0.6483 0.6483 0.3993
vn 0.5537 0.5941 -0.5835
vn 0.6368 -0.4753 -0.6071
vn 0.0000 -1.0000 -0.0000
vn -0.5900 -0.5511 0.5900
vn 0.9988 0.0436 0.0205
vn 1.0000 0.0000 -0.0000
vn 0.0000 0.0000 1.0000
vn 0.0000 -0.0000 1.0000
# 28 vertex normals

vt 0.0000 0.7483 0.0000
vt 0.0000 0.0000 0.0000
vt 0.7483 0.0000 0.0000
vt 0.7483 0.7483 0.0000
vt 0.7483 -7.8542 0.0000
vt 0.0000 -7.8542 0.0000
vt -0.7483 0.0000 0.0000
vt -0.7483 -7.8542 0.0000
vt -0.7483 0.7483 0.0000
vt 4.5057 3.8529 0.0000
vt 4.5057 8.0612 0.0000
vt 0.5291 8.0612 0.0000
vt 0.5291 3.8529 0.0000
vt -4.5057 0.1172 0.0000
vt -4.5057 0.0000 0.0000
vt -0.5291 0.0000 0.0000
vt -0.5291 0.1172 0.0000
vt -4.5057 8.0612 0.0000
vt -4.5057 4.1024 0.0000
vt -4.2562 4.1024 0.0000
vt -4.2562 3.8529 0.0000
vt -0.5291 3.8529 0.0000
vt -0.5291 8.0612 0.0000
vt 4.1024 0.0000 0.0000
vt 8.0612 0.0000 0.0000
vt 8.0612 0.1172 0.0000
vt 3.8529 0.0000 0.0000
vt 3.8529 0.1172 0.0000
vt 4.2562 0.0000 0.0000
vt 4.5057 0.0000 0.0000
vt 4.5057 0.1172 0.0000
vt 0.5291 0.1172 0.0000
vt 0.5291 0.0000 0.0000
vt -8.0612 0.1172 0.0000
vt -8.0612 0.0000 0.0000
vt -3.8529 0.0000 0.0000
vt -3.8529 0.1172 0.0000
# 37 texture coords

g Table
usemtl Wood_Bamboo_Medium
s 1
f 1/1/1 2/2/2 3/3/3 4/4/4 
f 5/5/5 3/3/3 2/2/2 6/6/6 
f 6/6/6 2/2/2 1/7/1 7/8/7 
f 7/6/7 1/2/1 4/7/4 8/8/8 
f 8/5/8 4/3/4 3/2/3 5/6/5 
f 8/9/8 5/7/5 6/2/6 7/1/7 
f 9/1/1 10/2/2 11/3/3 12/4/4 
f 13/5/5 11/3/3 10/2/2 14/6/6 
f 14/6/6 10/2/2 9/7/1 15/8/7 
f 15/6/7 9/2/1 12/7/4 16/8/8 
f 16/5/8 12/3/4 11/2/3 13/6/5 
f 16/9/8 13/7/5 14/2/6 15/1/7 
f 17/1/1 18/2/2 19/3/9 20/4/10 
f 21/5/5 19/3/9 18/2/2 22/6/6 
f 22/6/6 18/2/2 17/7/1 23/8/7 
f 23/6/7 17/2/1 20/7/10 24/8/11 
f 24/5/11 20/3/10 19/2/9 21/6/5 
f 24/9/11 21/7/5 22/2/6 23/1/7 
f 25/3/12 26/4/13 27/1/14 28/2/15 
f 28/2/15 29/6/16 30/5/17 25/3/12 
f 29/6/16 28/2/15 27/7/14 31/8/18 
f 31/6/18 27/2/14 26/7/13 32/8/19 
f 32/5/19 26/3/13 25/2/12 30/6/17 
f 32/9/19 30/7/17 29/2/16 31/1/18 
usemtl Wood_Cherry_Original
f 33/10/20 34/11/21 35/12/1 36/13/2 
f 34/14/21 37/15/22 38/16/7 35/17/1 
f 37/18/23 4/19/23 1/20/23 
f 1/20/23 2/21/23 39/22/23 
f 39/22/24 38/23/7 37/18/22 1/20/23 
f 4/24/25 37/25/22 34/26/21 
f 3/27/26 4/24/26 34/26/26 
f 3/27/26 34/26/21 33/28/20 
f 2/29/27 3/30/27 33/31/27 
f 33/31/20 36/32/2 39/33/24 2/29/28 
f 35/34/1 38/35/7 39/36/24 36/37/2 
# 29 polygons - 6 triangles

