# 3ds Max Wavefront OBJ Exporter v0.97b - (c)2007 guruware
# File Created: 14.03.2018 01:32:37

mtllib Mesa4.mtl

#
# object Table
#

v  1.8304 11.0656 12.8754
v  1.8304 11.0656 15.0258
v  4.2536 11.0656 15.0258
v  4.2536 11.0656 12.8754
v  4.2536 6.7033 15.0258
v  1.8304 6.7033 15.0258
v  1.8304 6.7033 12.8754
v  4.2536 6.7033 12.8754
v  3.5935 11.0656 5.5743
v  3.5935 11.0656 8.2368
v  4.5004 11.0656 8.2368
v  4.5004 11.0656 5.5743
v  4.5004 6.7033 8.2368
v  3.5935 6.7033 8.2368
v  3.5935 6.7033 5.5743
v  4.5004 6.7033 5.5743
v  -11.7345 11.0656 5.5743
v  -11.7345 11.0656 8.0257
v  -10.7652 11.0656 8.0257
v  -10.4757 11.0656 5.5743
v  -10.7652 6.7033 8.0257
v  -11.7345 6.7033 8.0257
v  -11.7345 6.7033 5.5743
v  -10.7652 6.7033 5.5743
v  -10.2654 11.0656 15.0258
v  -10.0608 11.0656 12.6358
v  -11.1245 11.0656 12.6358
v  -12.2151 11.0656 15.0258
v  -12.1127 6.8445 15.0258
v  -10.1552 6.7033 15.0258
v  -11.1245 6.7033 12.5770
v  -10.1552 6.7033 12.5770
v  4.2536 13.7736 15.0258
v  4.2536 13.7736 5.2864
v  -12.8627 13.7736 5.2864
v  -12.8627 13.7736 15.0258
v  4.5004 11.0656 5.2864
v  -12.8627 11.0656 5.2864
v  -12.8627 11.0656 15.0258
# 39 vertices

vn -0.5774 0.5774 -0.5774
vn -0.5774 0.5774 0.5774
vn 0.5774 0.5774 0.5774
vn 0.5774 0.5774 -0.5774
vn 0.5774 -0.5774 0.5774
vn -0.5774 -0.5774 0.5774
vn -0.5774 -0.5774 -0.5774
vn 0.5774 -0.5774 -0.5774
vn -0.5773 0.5774 -0.5774
vn -0.5773 0.5774 0.5774
vn 0.5553 0.5743 0.6015
vn 0.6339 0.5527 -0.5409
vn 0.5723 -0.5849 -0.5747
vn 0.5537 0.5815 0.5961
vn 0.6114 0.5704 -0.5485
vn -0.4379 0.6040 -0.6659
vn -0.7053 0.5506 0.4465
vn -0.7033 -0.5332 0.4702
vn 0.5661 -0.5932 0.5724
vn -0.4474 -0.6162 -0.6482
vn 0.5756 -0.5848 -0.5716
vn 0.6613 0.6613 0.3540
vn 0.5389 0.6064 -0.5846
vn 0.6556 -0.4580 -0.6004
vn 0.0000 -1.0000 -0.0000
vn -0.5951 -0.5401 0.5951
vn 0.9953 0.0907 0.0324
vn 1.0000 0.0000 -0.0000
vn 0.0000 0.0000 1.0000
vn 0.0000 -0.0000 1.0000
# 30 vertex normals

vt 0.0000 0.7483 0.0000
vt 0.0000 0.0000 0.0000
vt 0.7483 0.0000 0.0000
vt 0.7483 0.7483 0.0000
vt 0.7483 -7.8542 0.0000
vt 0.0000 -7.8542 0.0000
vt -0.7483 0.0000 0.0000
vt -0.7483 -7.8542 0.0000
vt -0.7483 0.7483 0.0000
vt 4.5057 3.8529 0.0000
vt 4.5057 8.0612 0.0000
vt 0.5291 8.0612 0.0000
vt 0.5291 3.8529 0.0000
vt -4.5057 0.1172 0.0000
vt -4.5057 0.0000 0.0000
vt -0.5291 0.0000 0.0000
vt -0.5291 0.1172 0.0000
vt -4.5057 8.0612 0.0000
vt -4.5057 4.1024 0.0000
vt -4.2562 4.1024 0.0000
vt -4.2562 3.8529 0.0000
vt -0.5291 3.8529 0.0000
vt -0.5291 8.0612 0.0000
vt 4.1024 0.0000 0.0000
vt 8.0612 0.0000 0.0000
vt 8.0612 0.1172 0.0000
vt 3.8529 0.0000 0.0000
vt 3.8529 0.1172 0.0000
vt 4.2562 0.0000 0.0000
vt 4.5057 0.0000 0.0000
vt 4.5057 0.1172 0.0000
vt 0.5291 0.1172 0.0000
vt 0.5291 0.0000 0.0000
vt -8.0612 0.1172 0.0000
vt -8.0612 0.0000 0.0000
vt -3.8529 0.0000 0.0000
vt -3.8529 0.1172 0.0000
# 37 texture coords

g Table
usemtl Wood_Bamboo_Medium
s 1
f 1/1/1 2/2/2 3/3/3 4/4/4 
f 5/5/5 3/3/3 2/2/2 6/6/6 
f 6/6/6 2/2/2 1/7/1 7/8/7 
f 7/6/7 1/2/1 4/7/4 8/8/8 
f 8/5/8 4/3/4 3/2/3 5/6/5 
f 8/9/8 5/7/5 6/2/6 7/1/7 
f 9/1/1 10/2/2 11/3/3 12/4/4 
f 13/5/5 11/3/3 10/2/2 14/6/6 
f 14/6/6 10/2/2 9/7/1 15/8/7 
f 15/6/7 9/2/1 12/7/4 16/8/8 
f 16/5/8 12/3/4 11/2/3 13/6/5 
f 16/9/8 13/7/5 14/2/6 15/1/7 
f 17/1/9 18/2/10 19/3/11 20/4/12 
f 21/5/5 19/3/11 18/2/10 22/6/6 
f 22/6/6 18/2/10 17/7/9 23/8/7 
f 23/6/7 17/2/9 20/7/12 24/8/13 
f 24/5/13 20/3/12 19/2/11 21/6/5 
f 24/9/13 21/7/5 22/2/6 23/1/7 
f 25/3/14 26/4/15 27/1/16 28/2/17 
f 28/2/17 29/6/18 30/5/19 25/3/14 
f 29/6/18 28/2/17 27/7/16 31/8/20 
f 31/6/20 27/2/16 26/7/15 32/8/21 
f 32/5/21 26/3/15 25/2/14 30/6/19 
f 32/9/21 30/7/19 29/2/18 31/1/20 
usemtl Wood_Cherry_Original
f 33/10/22 34/11/23 35/12/1 36/13/2 
f 34/14/23 37/15/24 38/16/7 35/17/1 
f 37/18/25 4/19/25 1/20/25 
f 1/20/25 2/21/25 39/22/25 
f 39/22/26 38/23/7 37/18/24 1/20/25 
f 4/24/27 37/25/24 34/26/23 
f 3/27/28 4/24/28 34/26/28 
f 3/27/28 34/26/23 33/28/22 
f 2/29/29 3/30/29 33/31/29 
f 33/31/22 36/32/2 39/33/26 2/29/30 
f 35/34/1 38/35/7 39/36/26 36/37/2 
# 29 polygons - 6 triangles

