# 3ds Max Wavefront OBJ Exporter v0.97b - (c)2007 guruware
# File Created: 15.03.2018 17:42:15

mtllib diana.mtl

#
# object Cylinder001
#

v  -14.4998 62.4179 26.6736
v  -14.4647 61.3830 32.6706
v  -13.7870 61.3930 32.6706
v  -13.8221 62.4278 26.6736
v  -14.3637 58.3600 37.9519
v  -13.6860 58.3700 37.9519
v  -14.2090 53.7134 41.8806
v  -13.5313 53.7234 41.8805
v  -14.0192 48.0037 43.9826
v  -13.3415 48.0136 43.9826
v  -13.8173 41.9195 44.0046
v  -13.1396 41.9295 44.0046
v  -13.6275 36.1948 41.9438
v  -12.9498 36.2047 41.9438
v  -13.4728 31.5199 38.0489
v  -12.7951 31.5299 38.0489
v  -13.3718 28.4588 32.7896
v  -12.6942 28.4688 32.7895
v  -13.3368 27.3806 26.8002
v  -12.6591 27.3906 26.8002
v  -13.3719 28.4155 20.8032
v  -12.6942 28.4255 20.8032
v  -13.4728 31.4385 15.5219
v  -12.7952 31.4485 15.5219
v  -13.6276 36.0851 11.5933
v  -12.9499 36.0951 11.5933
v  -13.8173 41.7948 9.4912
v  -13.1397 41.8048 9.4912
v  -14.0193 47.8790 9.4692
v  -13.3416 47.8889 9.4692
v  -14.2090 53.6037 11.5300
v  -13.5314 53.6137 11.5300
v  -14.3637 58.2786 15.4249
v  -13.6861 58.2886 15.4249
v  -14.4647 61.3397 20.6842
v  -13.7870 61.3497 20.6842
v  -13.1093 61.4030 32.6706
v  -13.1444 62.4378 26.6736
v  -13.0084 58.3799 37.9519
v  -12.8537 53.7333 41.8805
v  -12.6639 48.0236 43.9826
v  -12.4619 41.9395 44.0045
v  -12.2722 36.2147 41.9438
v  -12.1175 31.5399 38.0488
v  -12.0165 28.4787 32.7895
v  -11.9815 27.4006 26.8001
v  -12.0165 28.4354 20.8031
v  -12.1175 31.4585 15.5218
v  -12.2722 36.1051 11.5932
v  -12.4620 41.8148 9.4911
v  -12.6639 47.8989 9.4692
v  -12.8537 53.6237 11.5299
v  -13.0084 58.2985 15.4248
v  -13.1094 61.3597 20.6842
v  -12.4317 61.4130 32.6705
v  -12.4668 62.4478 26.6735
v  -12.3307 58.3899 37.9518
v  -12.1760 53.7433 41.8804
v  -11.9862 48.0336 43.9825
v  -11.7843 41.9495 44.0045
v  -11.5945 36.2247 41.9437
v  -11.4398 31.5499 38.0488
v  -11.3389 28.4887 32.7895
v  -11.3038 27.4106 26.8001
v  -11.3389 28.4454 20.8031
v  -11.4399 31.4685 15.5218
v  -11.5946 36.1151 11.5932
v  -11.7843 41.8248 9.4911
v  -11.9863 47.9089 9.4691
v  -12.1760 53.6337 11.5299
v  -12.3307 58.3085 15.4248
v  -12.4317 61.3697 20.6841
v  -11.7540 61.4230 32.6705
v  -11.7891 62.4578 26.6735
v  -11.6530 58.3999 37.9518
v  -11.4983 53.7533 41.8804
v  -11.3086 48.0436 43.9825
v  -11.1066 41.9595 44.0045
v  -10.9168 36.2347 41.9437
v  -10.7621 31.5598 38.0488
v  -10.6612 28.4987 32.7894
v  -10.6261 27.4206 26.8001
v  -10.6612 28.4554 20.8031
v  -10.7622 31.4784 15.5218
v  -10.9169 36.1250 11.5931
v  -11.1067 41.8348 9.4911
v  -11.3086 47.9189 9.4691
v  -11.4984 53.6437 11.5298
v  -11.6531 58.3185 15.4248
v  -11.7540 61.3796 20.6841
v  -11.0763 61.4329 32.6704
v  -11.1114 62.4678 26.6734
v  -10.9754 58.4099 37.9518
v  -10.8207 53.7633 41.8804
v  -10.6309 48.0536 43.9824
v  -10.4289 41.9694 44.0044
v  -10.2392 36.2447 41.9437
v  -10.0845 31.5698 38.0487
v  -9.9835 28.5087 32.7894
v  -9.9485 27.4306 26.8000
v  -9.9835 28.4654 20.8030
v  -10.0845 31.4884 15.5217
v  -10.2392 36.1350 11.5931
v  -10.4290 41.8447 9.4910
v  -10.6309 47.9289 9.4690
v  -10.8207 53.6536 11.5298
v  -10.9754 58.3285 15.4247
v  -11.0764 61.3896 20.6841
# 108 vertices

vn -0.0332 0.9994 -0.0036
vn -0.0312 0.9404 0.3386
vn -0.0254 0.7679 0.6400
vn -0.0166 0.5029 0.8642
vn -0.0058 0.1771 0.9842
vn 0.0058 -0.1700 0.9854
vn 0.0166 -0.4966 0.8678
vn 0.0254 -0.7633 0.6455
vn 0.0312 -0.9379 0.3454
vn 0.0332 -0.9994 0.0036
vn 0.0312 -0.9404 -0.3386
vn 0.0254 -0.7679 -0.6400
vn 0.0166 -0.5029 -0.8642
vn 0.0058 -0.1771 -0.9842
vn -0.0058 0.1700 -0.9854
vn -0.0166 0.4966 -0.8678
vn -0.0254 0.7633 -0.6456
vn -0.0312 0.9379 -0.3454
vn -0.9999 -0.0147 0.0001
vn 0.9999 0.0147 -0.0001
# 20 vertex normals

vt 0.7500 0.0000 1.0000
vt 0.8056 0.0000 1.0000
vt 0.8056 0.2000 1.0000
vt 0.7500 0.2000 1.0000
vt 0.8611 0.0000 1.0000
vt 0.8611 0.2000 1.0000
vt 0.9167 0.0000 1.0000
vt 0.9167 0.2000 1.0000
vt 0.9722 0.0000 1.0000
vt 0.9722 0.2000 1.0000
vt 1.0278 0.0000 1.0000
vt 1.0278 0.2000 1.0000
vt 0.0278 0.0000 1.0000
vt 0.0833 0.0000 1.0000
vt 0.0833 0.2000 1.0000
vt 0.0278 0.2000 1.0000
vt 0.1389 0.0000 1.0000
vt 0.1389 0.2000 1.0000
vt 0.1944 0.0000 1.0000
vt 0.1944 0.2000 1.0000
vt 0.2500 0.0000 1.0000
vt 0.2500 0.2000 1.0000
vt 0.3056 0.0000 1.0000
vt 0.3056 0.2000 1.0000
vt 0.3611 0.0000 1.0000
vt 0.3611 0.2000 1.0000
vt 0.4167 0.0000 1.0000
vt 0.4167 0.2000 1.0000
vt 0.4722 0.0000 1.0000
vt 0.4722 0.2000 1.0000
vt 0.5278 0.0000 1.0000
vt 0.5278 0.2000 1.0000
vt 0.5833 0.0000 1.0000
vt 0.5833 0.2000 1.0000
vt 0.6389 0.0000 1.0000
vt 0.6389 0.2000 1.0000
vt 0.6944 0.0000 1.0000
vt 0.6944 0.2000 1.0000
vt 0.8056 0.4000 1.0000
vt 0.7500 0.4000 1.0000
vt 0.8611 0.4000 1.0000
vt 0.9167 0.4000 1.0000
vt 0.9722 0.4000 1.0000
vt 1.0278 0.4000 1.0000
vt 0.0833 0.4000 1.0000
vt 0.0278 0.4000 1.0000
vt 0.1389 0.4000 1.0000
vt 0.1944 0.4000 1.0000
vt 0.2500 0.4000 1.0000
vt 0.3056 0.4000 1.0000
vt 0.3611 0.4000 1.0000
vt 0.4167 0.4000 1.0000
vt 0.4722 0.4000 1.0000
vt 0.5278 0.4000 1.0000
vt 0.5833 0.4000 1.0000
vt 0.6389 0.4000 1.0000
vt 0.6944 0.4000 1.0000
vt 0.8056 0.6000 1.0000
vt 0.7500 0.6000 1.0000
vt 0.8611 0.6000 1.0000
vt 0.9167 0.6000 1.0000
vt 0.9722 0.6000 1.0000
vt 1.0278 0.6000 1.0000
vt 0.0833 0.6000 1.0000
vt 0.0278 0.6000 1.0000
vt 0.1389 0.6000 1.0000
vt 0.1944 0.6000 1.0000
vt 0.2500 0.6000 1.0000
vt 0.3056 0.6000 1.0000
vt 0.3611 0.6000 1.0000
vt 0.4167 0.6000 1.0000
vt 0.4722 0.6000 1.0000
vt 0.5278 0.6000 1.0000
vt 0.5833 0.6000 1.0000
vt 0.6389 0.6000 1.0000
vt 0.6944 0.6000 1.0000
vt 0.8056 0.8000 1.0000
vt 0.7500 0.8000 1.0000
vt 0.8611 0.8000 1.0000
vt 0.9167 0.8000 1.0000
vt 0.9722 0.8000 1.0000
vt 1.0278 0.8000 1.0000
vt 0.0833 0.8000 1.0000
vt 0.0278 0.8000 1.0000
vt 0.1389 0.8000 1.0000
vt 0.1944 0.8000 1.0000
vt 0.2500 0.8000 1.0000
vt 0.3056 0.8000 1.0000
vt 0.3611 0.8000 1.0000
vt 0.4167 0.8000 1.0000
vt 0.4722 0.8000 1.0000
vt 0.5278 0.8000 1.0000
vt 0.5833 0.8000 1.0000
vt 0.6389 0.8000 1.0000
vt 0.6944 0.8000 1.0000
vt 0.8056 1.0000 1.0000
vt 0.7500 1.0000 1.0000
vt 0.8611 1.0000 1.0000
vt 0.9167 1.0000 1.0000
vt 0.9722 1.0000 1.0000
vt 1.0278 1.0000 1.0000
vt 0.0833 1.0000 1.0000
vt 0.0278 1.0000 1.0000
vt 0.1389 1.0000 1.0000
vt 0.1944 1.0000 1.0000
vt 0.2500 1.0000 1.0000
vt 0.3056 1.0000 1.0000
vt 0.3611 1.0000 1.0000
vt 0.4167 1.0000 1.0000
vt 0.4722 1.0000 1.0000
vt 0.5278 1.0000 1.0000
vt 0.5833 1.0000 1.0000
vt 0.6389 1.0000 1.0000
vt 0.6944 1.0000 1.0000
vt 0.8214 0.8830 -0.2500
vt 0.9330 0.7500 -0.2500
vt 0.9924 0.5868 -0.2500
vt 0.9924 0.4132 -0.2500
vt 0.9330 0.2500 -0.2500
vt 0.8214 0.1170 -0.2500
vt 0.6710 0.0302 -0.2500
vt 0.5000 0.0000 -0.2500
vt 0.3290 0.0302 -0.2500
vt 0.1786 0.1170 -0.2500
vt 0.0670 0.2500 -0.2500
vt 0.0076 0.4132 -0.2500
vt 0.0076 0.5868 -0.2500
vt 0.0670 0.7500 -0.2500
vt 0.1786 0.8830 -0.2500
vt 0.3290 0.9698 -0.2500
vt 0.5000 1.0000 -0.2500
vt 0.6710 0.9698 -0.2500
vt 0.3290 0.9698 0.2500
vt 0.1786 0.8830 0.2500
vt 0.0670 0.7500 0.2500
vt 0.0076 0.5868 0.2500
vt 0.0076 0.4132 0.2500
vt 0.0670 0.2500 0.2500
vt 0.1786 0.1170 0.2500
vt 0.3290 0.0302 0.2500
vt 0.5000 0.0000 0.2500
vt 0.6710 0.0302 0.2500
vt 0.8214 0.1170 0.2500
vt 0.9330 0.2500 0.2500
vt 0.9924 0.4132 0.2500
vt 0.9924 0.5868 0.2500
vt 0.9330 0.7500 0.2500
vt 0.8214 0.8830 0.2500
vt 0.6710 0.9698 0.2500
vt 0.5000 1.0000 0.2500
# 150 texture coords

g Cylinder001
usemtl 05___Default
s 8
f 1/1/1 2/2/2 3/3/2 
f 3/3/2 4/4/1 1/1/1 
f 2/2/2 5/5/3 6/6/3 
f 6/6/3 3/3/2 2/2/2 
f 5/5/3 7/7/4 8/8/4 
f 8/8/4 6/6/3 5/5/3 
f 7/7/4 9/9/5 10/10/5 
f 10/10/5 8/8/4 7/7/4 
f 9/9/5 11/11/6 12/12/6 
f 12/12/6 10/10/5 9/9/5 
f 11/13/6 13/14/7 14/15/7 
f 14/15/7 12/16/6 11/13/6 
f 13/14/7 15/17/8 16/18/8 
f 16/18/8 14/15/7 13/14/7 
f 15/17/8 17/19/9 18/20/9 
f 18/20/9 16/18/8 15/17/8 
f 17/19/9 19/21/10 20/22/10 
f 20/22/10 18/20/9 17/19/9 
f 19/21/10 21/23/11 22/24/11 
f 22/24/11 20/22/10 19/21/10 
f 21/23/11 23/25/12 24/26/12 
f 24/26/12 22/24/11 21/23/11 
f 23/25/12 25/27/13 26/28/13 
f 26/28/13 24/26/12 23/25/12 
f 25/27/13 27/29/14 28/30/14 
f 28/30/14 26/28/13 25/27/13 
f 27/29/14 29/31/15 30/32/15 
f 30/32/15 28/30/14 27/29/14 
f 29/31/15 31/33/16 32/34/16 
f 32/34/16 30/32/15 29/31/15 
f 31/33/16 33/35/17 34/36/17 
f 34/36/17 32/34/16 31/33/16 
f 33/35/17 35/37/18 36/38/18 
f 36/38/18 34/36/17 33/35/17 
f 35/37/18 1/1/1 4/4/1 
f 4/4/1 36/38/18 35/37/18 
f 4/4/1 3/3/2 37/39/2 
f 37/39/2 38/40/1 4/4/1 
f 3/3/2 6/6/3 39/41/3 
f 39/41/3 37/39/2 3/3/2 
f 6/6/3 8/8/4 40/42/4 
f 40/42/4 39/41/3 6/6/3 
f 8/8/4 10/10/5 41/43/5 
f 41/43/5 40/42/4 8/8/4 
f 10/10/5 12/12/6 42/44/6 
f 42/44/6 41/43/5 10/10/5 
f 12/16/6 14/15/7 43/45/7 
f 43/45/7 42/46/6 12/16/6 
f 14/15/7 16/18/8 44/47/8 
f 44/47/8 43/45/7 14/15/7 
f 16/18/8 18/20/9 45/48/9 
f 45/48/9 44/47/8 16/18/8 
f 18/20/9 20/22/10 46/49/10 
f 46/49/10 45/48/9 18/20/9 
f 20/22/10 22/24/11 47/50/11 
f 47/50/11 46/49/10 20/22/10 
f 22/24/11 24/26/12 48/51/12 
f 48/51/12 47/50/11 22/24/11 
f 24/26/12 26/28/13 49/52/13 
f 49/52/13 48/51/12 24/26/12 
f 26/28/13 28/30/14 50/53/14 
f 50/53/14 49/52/13 26/28/13 
f 28/30/14 30/32/15 51/54/15 
f 51/54/15 50/53/14 28/30/14 
f 30/32/15 32/34/16 52/55/16 
f 52/55/16 51/54/15 30/32/15 
f 32/34/16 34/36/17 53/56/17 
f 53/56/17 52/55/16 32/34/16 
f 34/36/17 36/38/18 54/57/18 
f 54/57/18 53/56/17 34/36/17 
f 36/38/18 4/4/1 38/40/1 
f 38/40/1 54/57/18 36/38/18 
f 38/40/1 37/39/2 55/58/2 
f 55/58/2 56/59/1 38/40/1 
f 37/39/2 39/41/3 57/60/3 
f 57/60/3 55/58/2 37/39/2 
f 39/41/3 40/42/4 58/61/4 
f 58/61/4 57/60/3 39/41/3 
f 40/42/4 41/43/5 59/62/5 
f 59/62/5 58/61/4 40/42/4 
f 41/43/5 42/44/6 60/63/6 
f 60/63/6 59/62/5 41/43/5 
f 42/46/6 43/45/7 61/64/7 
f 61/64/7 60/65/6 42/46/6 
f 43/45/7 44/47/8 62/66/8 
f 62/66/8 61/64/7 43/45/7 
f 44/47/8 45/48/9 63/67/9 
f 63/67/9 62/66/8 44/47/8 
f 45/48/9 46/49/10 64/68/10 
f 64/68/10 63/67/9 45/48/9 
f 46/49/10 47/50/11 65/69/11 
f 65/69/11 64/68/10 46/49/10 
f 47/50/11 48/51/12 66/70/12 
f 66/70/12 65/69/11 47/50/11 
f 48/51/12 49/52/13 67/71/13 
f 67/71/13 66/70/12 48/51/12 
f 49/52/13 50/53/14 68/72/14 
f 68/72/14 67/71/13 49/52/13 
f 50/53/14 51/54/15 69/73/15 
f 69/73/15 68/72/14 50/53/14 
f 51/54/15 52/55/16 70/74/16 
f 70/74/16 69/73/15 51/54/15 
f 52/55/16 53/56/17 71/75/17 
f 71/75/17 70/74/16 52/55/16 
f 53/56/17 54/57/18 72/76/18 
f 72/76/18 71/75/17 53/56/17 
f 54/57/18 38/40/1 56/59/1 
f 56/59/1 72/76/18 54/57/18 
f 56/59/1 55/58/2 73/77/2 
f 73/77/2 74/78/1 56/59/1 
f 55/58/2 57/60/3 75/79/3 
f 75/79/3 73/77/2 55/58/2 
f 57/60/3 58/61/4 76/80/4 
f 76/80/4 75/79/3 57/60/3 
f 58/61/4 59/62/5 77/81/5 
f 77/81/5 76/80/4 58/61/4 
f 59/62/5 60/63/6 78/82/6 
f 78/82/6 77/81/5 59/62/5 
f 60/65/6 61/64/7 79/83/7 
f 79/83/7 78/84/6 60/65/6 
f 61/64/7 62/66/8 80/85/8 
f 80/85/8 79/83/7 61/64/7 
f 62/66/8 63/67/9 81/86/9 
f 81/86/9 80/85/8 62/66/8 
f 63/67/9 64/68/10 82/87/10 
f 82/87/10 81/86/9 63/67/9 
f 64/68/10 65/69/11 83/88/11 
f 83/88/11 82/87/10 64/68/10 
f 65/69/11 66/70/12 84/89/12 
f 84/89/12 83/88/11 65/69/11 
f 66/70/12 67/71/13 85/90/13 
f 85/90/13 84/89/12 66/70/12 
f 67/71/13 68/72/14 86/91/14 
f 86/91/14 85/90/13 67/71/13 
f 68/72/14 69/73/15 87/92/15 
f 87/92/15 86/91/14 68/72/14 
f 69/73/15 70/74/16 88/93/16 
f 88/93/16 87/92/15 69/73/15 
f 70/74/16 71/75/17 89/94/17 
f 89/94/17 88/93/16 70/74/16 
f 71/75/17 72/76/18 90/95/18 
f 90/95/18 89/94/17 71/75/17 
f 72/76/18 56/59/1 74/78/1 
f 74/78/1 90/95/18 72/76/18 
f 74/78/1 73/77/2 91/96/2 
f 91/96/2 92/97/1 74/78/1 
f 73/77/2 75/79/3 93/98/3 
f 93/98/3 91/96/2 73/77/2 
f 75/79/3 76/80/4 94/99/4 
f 94/99/4 93/98/3 75/79/3 
f 76/80/4 77/81/5 95/100/5 
f 95/100/5 94/99/4 76/80/4 
f 77/81/5 78/82/6 96/101/6 
f 96/101/6 95/100/5 77/81/5 
f 78/84/6 79/83/7 97/102/7 
f 97/102/7 96/103/6 78/84/6 
f 79/83/7 80/85/8 98/104/8 
f 98/104/8 97/102/7 79/83/7 
f 80/85/8 81/86/9 99/105/9 
f 99/105/9 98/104/8 80/85/8 
f 81/86/9 82/87/10 100/106/10 
f 100/106/10 99/105/9 81/86/9 
f 82/87/10 83/88/11 101/107/11 
f 101/107/11 100/106/10 82/87/10 
f 83/88/11 84/89/12 102/108/12 
f 102/108/12 101/107/11 83/88/11 
f 84/89/12 85/90/13 103/109/13 
f 103/109/13 102/108/12 84/89/12 
f 85/90/13 86/91/14 104/110/14 
f 104/110/14 103/109/13 85/90/13 
f 86/91/14 87/92/15 105/111/15 
f 105/111/15 104/110/14 86/91/14 
f 87/92/15 88/93/16 106/112/16 
f 106/112/16 105/111/15 87/92/15 
f 88/93/16 89/94/17 107/113/17 
f 107/113/17 106/112/16 88/93/16 
f 89/94/17 90/95/18 108/114/18 
f 108/114/18 107/113/17 89/94/17 
f 90/95/18 74/78/1 92/97/1 
f 92/97/1 108/114/18 90/95/18 
s 1
f 33/115/19 31/116/19 29/117/19 
f 29/117/19 27/118/19 25/119/19 
f 25/119/19 23/120/19 21/121/19 
f 29/117/19 25/119/19 21/121/19 
f 21/121/19 19/122/19 17/123/19 
f 17/123/19 15/124/19 13/125/19 
f 21/121/19 17/123/19 13/125/19 
f 13/125/19 11/126/19 9/127/19 
f 9/127/19 7/128/19 5/129/19 
f 13/125/19 9/127/19 5/129/19 
f 21/121/19 13/125/19 5/129/19 
f 29/117/19 21/121/19 5/129/19 
f 5/129/19 2/130/19 1/131/19 
f 29/117/19 5/129/19 1/131/19 
f 33/115/19 29/117/19 1/131/19 
f 35/132/19 33/115/19 1/131/19 
f 91/133/20 93/134/20 94/135/20 
f 94/135/20 95/136/20 96/137/20 
f 96/137/20 97/138/20 98/139/20 
f 94/135/20 96/137/20 98/139/20 
f 98/139/20 99/140/20 100/141/20 
f 100/141/20 101/142/20 102/143/20 
f 98/139/20 100/141/20 102/143/20 
f 102/143/20 103/144/20 104/145/20 
f 104/145/20 105/146/20 106/147/20 
f 102/143/20 104/145/20 106/147/20 
f 98/139/20 102/143/20 106/147/20 
f 94/135/20 98/139/20 106/147/20 
f 106/147/20 107/148/20 108/149/20 
f 94/135/20 106/147/20 108/149/20 
f 91/133/20 94/135/20 108/149/20 
f 92/150/20 91/133/20 108/149/20 
# 212 faces

