# 3ds Max Wavefront OBJ Exporter v0.97b - (c)2007 guruware
# File Created: 15.03.2018 15:00:52

mtllib whiskas.mtl

#
# object Cylinder001
#

v  -3.5952 0.0000 2.1950
v  -1.8892 0.0000 1.5741
v  -1.7797 0.0000 2.1950
v  -2.2044 0.0000 1.0280
v  -2.6874 0.0000 0.6227
v  -3.2800 0.0000 0.4071
v  -3.9105 0.0000 0.4071
v  -4.5030 0.0000 0.6227
v  -4.9860 0.0000 1.0280
v  -5.3013 0.0000 1.5741
v  -5.4108 0.0000 2.1950
v  -5.3013 0.0000 2.8160
v  -4.9860 0.0000 3.3621
v  -4.5030 0.0000 3.7674
v  -3.9105 0.0000 3.9830
v  -3.2800 0.0000 3.9830
v  -2.6874 0.0000 3.7674
v  -2.2044 0.0000 3.3621
v  -1.8892 0.0000 2.8160
v  -1.8892 0.5517 1.5741
v  -1.7797 0.5517 2.1950
v  -2.2044 0.5517 1.0280
v  -2.6874 0.5517 0.6227
v  -3.2800 0.5517 0.4071
v  -3.9105 0.5517 0.4071
v  -4.5030 0.5517 0.6227
v  -4.9860 0.5517 1.0280
v  -5.3013 0.5517 1.5741
v  -5.4108 0.5517 2.1950
v  -5.3013 0.5517 2.8160
v  -4.9860 0.5517 3.3621
v  -4.5030 0.5517 3.7674
v  -3.9105 0.5517 3.9830
v  -3.2800 0.5517 3.9830
v  -2.6874 0.5517 3.7674
v  -2.2044 0.5517 3.3621
v  -1.8892 0.5517 2.8160
v  -1.8892 1.1033 1.5741
v  -1.7797 1.1033 2.1950
v  -2.2044 1.1033 1.0280
v  -2.6874 1.1033 0.6227
v  -3.2800 1.1033 0.4071
v  -3.9105 1.1033 0.4071
v  -4.5030 1.1033 0.6227
v  -4.9860 1.1033 1.0280
v  -5.3013 1.1033 1.5741
v  -5.4108 1.1033 2.1950
v  -5.3013 1.1033 2.8160
v  -4.9860 1.1033 3.3621
v  -4.5030 1.1033 3.7674
v  -3.9105 1.1033 3.9830
v  -3.2800 1.1033 3.9830
v  -2.6874 1.1033 3.7674
v  -2.2044 1.1033 3.3621
v  -1.8892 1.1033 2.8160
v  -1.8892 1.6550 1.5741
v  -1.7797 1.6550 2.1950
v  -2.2044 1.6550 1.0280
v  -2.6874 1.6550 0.6227
v  -3.2800 1.6550 0.4071
v  -3.9105 1.6550 0.4071
v  -4.5030 1.6550 0.6227
v  -4.9860 1.6550 1.0280
v  -5.3013 1.6550 1.5741
v  -5.4108 1.6550 2.1950
v  -5.3013 1.6550 2.8160
v  -4.9860 1.6550 3.3621
v  -4.5030 1.6550 3.7674
v  -3.9105 1.6550 3.9830
v  -3.2800 1.6550 3.9830
v  -2.6874 1.6550 3.7674
v  -2.2044 1.6550 3.3621
v  -1.8892 1.6550 2.8160
v  -1.8892 2.2066 1.5741
v  -1.7797 2.2066 2.1950
v  -2.2044 2.2066 1.0280
v  -2.6874 2.2066 0.6227
v  -3.2800 2.2066 0.4071
v  -3.9105 2.2066 0.4071
v  -4.5030 2.2066 0.6227
v  -4.9860 2.2066 1.0280
v  -5.3013 2.2066 1.5741
v  -5.4108 2.2066 2.1950
v  -5.3013 2.2066 2.8160
v  -4.9860 2.2066 3.3621
v  -4.5030 2.2066 3.7674
v  -3.9105 2.2066 3.9830
v  -3.2800 2.2066 3.9830
v  -2.6874 2.2066 3.7674
v  -2.2044 2.2066 3.3621
v  -1.8892 2.2066 2.8160
v  -1.8892 2.7583 1.5741
v  -1.7797 2.7583 2.1950
v  -2.2044 2.7583 1.0280
v  -2.6874 2.7583 0.6227
v  -3.2800 2.7583 0.4071
v  -3.9105 2.7583 0.4071
v  -4.5030 2.7583 0.6227
v  -4.9860 2.7583 1.0280
v  -5.3013 2.7583 1.5741
v  -5.4108 2.7583 2.1950
v  -5.3013 2.7583 2.8160
v  -4.9860 2.7583 3.3621
v  -4.5030 2.7583 3.7674
v  -3.9105 2.7583 3.9830
v  -3.2800 2.7583 3.9830
v  -2.6874 2.7583 3.7674
v  -2.2044 2.7583 3.3621
v  -1.8892 2.7583 2.8160
v  -3.5952 2.7583 2.1950
# 110 vertices

vn 0.0000 -1.0000 -0.0000
vn 1.0000 0.0000 0.0000
vn 0.9397 0.0000 -0.3420
vn 0.7660 0.0000 -0.6428
vn 0.5000 0.0000 -0.8660
vn 0.1736 0.0000 -0.9848
vn -0.1736 0.0000 -0.9848
vn -0.5000 0.0000 -0.8660
vn -0.7660 0.0000 -0.6428
vn -0.9397 0.0000 -0.3420
vn -1.0000 0.0000 -0.0000
vn -0.9397 0.0000 0.3420
vn -0.7660 0.0000 0.6428
vn -0.5000 0.0000 0.8660
vn -0.1736 0.0000 0.9848
vn 0.1736 0.0000 0.9848
vn 0.5000 0.0000 0.8660
vn 0.7660 0.0000 0.6428
vn 0.9397 0.0000 0.3420
vn 0.7660 -0.0000 -0.6428
vn -0.9397 -0.0000 -0.3420
vn -0.9397 -0.0000 0.3420
vn -0.7660 -0.0000 0.6428
vn 0.7660 -0.0000 0.6428
vn 0.9397 -0.0000 0.3420
vn 0.9397 -0.0000 -0.3420
vn 1.0000 -0.0000 0.0000
vn 0.5000 -0.0000 -0.8660
vn 0.1736 -0.0000 -0.9848
vn -0.1736 -0.0000 -0.9848
vn -0.5000 -0.0000 -0.8660
vn -0.7660 -0.0000 -0.6428
vn -1.0000 -0.0000 -0.0000
vn -0.5000 -0.0000 0.8660
vn -0.1736 -0.0000 0.9848
vn 0.1736 -0.0000 0.9848
vn 0.5000 -0.0000 0.8660
vn 0.0000 1.0000 -0.0000
# 38 vertex normals

vt 0.5000 0.0000 0.0000
vt 0.8056 0.0000 1.0000
vt 0.7500 0.0000 1.0000
vt 0.8611 0.0000 1.0000
vt 0.9167 0.0000 1.0000
vt 0.9722 0.0000 1.0000
vt 0.0278 0.0000 1.0000
vt -0.0278 0.0000 1.0000
vt 0.0833 0.0000 1.0000
vt 0.1389 0.0000 1.0000
vt 0.1944 0.0000 1.0000
vt 0.2500 0.0000 1.0000
vt 0.3056 0.0000 1.0000
vt 0.3611 0.0000 1.0000
vt 0.4167 0.0000 1.0000
vt 0.4722 0.0000 1.0000
vt 0.5278 0.0000 1.0000
vt 0.5833 0.0000 1.0000
vt 0.6389 0.0000 1.0000
vt 0.6944 0.0000 1.0000
vt 0.8056 0.2000 1.0000
vt 0.7500 0.2000 1.0000
vt 0.8611 0.2000 1.0000
vt 0.9167 0.2000 1.0000
vt 0.9722 0.2000 1.0000
vt 0.0278 0.2000 1.0000
vt -0.0278 0.2000 1.0000
vt 0.0833 0.2000 1.0000
vt 0.1389 0.2000 1.0000
vt 0.1944 0.2000 1.0000
vt 0.2500 0.2000 1.0000
vt 0.3056 0.2000 1.0000
vt 0.3611 0.2000 1.0000
vt 0.4167 0.2000 1.0000
vt 0.4722 0.2000 1.0000
vt 0.5278 0.2000 1.0000
vt 0.5833 0.2000 1.0000
vt 0.6389 0.2000 1.0000
vt 0.6944 0.2000 1.0000
vt 0.8056 0.4000 1.0000
vt 0.7500 0.4000 1.0000
vt 0.8611 0.4000 1.0000
vt 0.9167 0.4000 1.0000
vt 0.9722 0.4000 1.0000
vt 0.0278 0.4000 1.0000
vt -0.0278 0.4000 1.0000
vt 0.0833 0.4000 1.0000
vt 0.1389 0.4000 1.0000
vt 0.1944 0.4000 1.0000
vt 0.2500 0.4000 1.0000
vt 0.3056 0.4000 1.0000
vt 0.3611 0.4000 1.0000
vt 0.4167 0.4000 1.0000
vt 0.4722 0.4000 1.0000
vt 0.5278 0.4000 1.0000
vt 0.5833 0.4000 1.0000
vt 0.6389 0.4000 1.0000
vt 0.6944 0.4000 1.0000
vt 0.8056 0.6000 1.0000
vt 0.7500 0.6000 1.0000
vt 0.8611 0.6000 1.0000
vt 0.9167 0.6000 1.0000
vt 0.9722 0.6000 1.0000
vt 0.0278 0.6000 1.0000
vt -0.0278 0.6000 1.0000
vt 0.0833 0.6000 1.0000
vt 0.1389 0.6000 1.0000
vt 0.1944 0.6000 1.0000
vt 0.2500 0.6000 1.0000
vt 0.3056 0.6000 1.0000
vt 0.3611 0.6000 1.0000
vt 0.4167 0.6000 1.0000
vt 0.4722 0.6000 1.0000
vt 0.5278 0.6000 1.0000
vt 0.5833 0.6000 1.0000
vt 0.6389 0.6000 1.0000
vt 0.6944 0.6000 1.0000
vt 0.8056 0.8000 1.0000
vt 0.7500 0.8000 1.0000
vt 0.8611 0.8000 1.0000
vt 0.9167 0.8000 1.0000
vt 0.9722 0.8000 1.0000
vt 0.0278 0.8000 1.0000
vt -0.0278 0.8000 1.0000
vt 0.0833 0.8000 1.0000
vt 0.1389 0.8000 1.0000
vt 0.1944 0.8000 1.0000
vt 0.2500 0.8000 1.0000
vt 0.3056 0.8000 1.0000
vt 0.3611 0.8000 1.0000
vt 0.4167 0.8000 1.0000
vt 0.4722 0.8000 1.0000
vt 0.5278 0.8000 1.0000
vt 0.5833 0.8000 1.0000
vt 0.6389 0.8000 1.0000
vt 0.6944 0.8000 1.0000
vt 0.8056 1.0000 1.0000
vt 0.7500 1.0000 1.0000
vt 0.8611 1.0000 1.0000
vt 0.9167 1.0000 1.0000
vt 0.9722 1.0000 1.0000
vt 0.0278 1.0000 1.0000
vt -0.0278 1.0000 1.0000
vt 0.0833 1.0000 1.0000
vt 0.1389 1.0000 1.0000
vt 0.1944 1.0000 1.0000
vt 0.2500 1.0000 1.0000
vt 0.3056 1.0000 1.0000
vt 0.3611 1.0000 1.0000
vt 0.4167 1.0000 1.0000
vt 0.4722 1.0000 1.0000
vt 0.5278 1.0000 1.0000
vt 0.5833 1.0000 1.0000
vt 0.6389 1.0000 1.0000
vt 0.6944 1.0000 1.0000
vt 0.5000 1.0000 0.0000
# 116 texture coords

g Cylinder001
usemtl 09___Default
s 1
f 1/1/1 2/2/1 3/3/1 
f 1/1/1 4/4/1 2/2/1 
f 1/1/1 5/5/1 4/4/1 
f 1/1/1 6/6/1 5/5/1 
f 1/1/1 7/7/1 6/8/1 
f 1/1/1 8/9/1 7/7/1 
f 1/1/1 9/10/1 8/9/1 
f 1/1/1 10/11/1 9/10/1 
f 1/1/1 11/12/1 10/11/1 
f 1/1/1 12/13/1 11/12/1 
f 1/1/1 13/14/1 12/13/1 
f 1/1/1 14/15/1 13/14/1 
f 1/1/1 15/16/1 14/15/1 
f 1/1/1 16/17/1 15/16/1 
f 1/1/1 17/18/1 16/17/1 
f 1/1/1 18/19/1 17/18/1 
f 1/1/1 19/20/1 18/19/1 
f 1/1/1 3/3/1 19/20/1 
s 8
f 3/3/2 20/21/3 21/22/2 
f 3/3/2 2/2/3 20/21/3 
f 2/2/3 22/23/4 20/21/3 
f 2/2/3 4/4/4 22/23/4 
f 4/4/4 23/24/5 22/23/4 
f 4/4/4 5/5/5 23/24/5 
f 5/5/5 24/25/6 23/24/5 
f 5/5/5 6/6/6 24/25/6 
f 6/8/6 25/26/7 24/27/6 
f 6/8/6 7/7/7 25/26/7 
f 7/7/7 26/28/8 25/26/7 
f 7/7/7 8/9/8 26/28/8 
f 8/9/8 27/29/9 26/28/8 
f 8/9/8 9/10/9 27/29/9 
f 9/10/9 28/30/10 27/29/9 
f 9/10/9 10/11/10 28/30/10 
f 10/11/10 29/31/11 28/30/10 
f 10/11/10 11/12/11 29/31/11 
f 11/12/11 30/32/12 29/31/11 
f 11/12/11 12/13/12 30/32/12 
f 12/13/12 31/33/13 30/32/12 
f 12/13/12 13/14/13 31/33/13 
f 13/14/13 32/34/14 31/33/13 
f 13/14/13 14/15/14 32/34/14 
f 14/15/14 33/35/15 32/34/14 
f 14/15/14 15/16/15 33/35/15 
f 15/16/15 34/36/16 33/35/15 
f 15/16/15 16/17/16 34/36/16 
f 16/17/16 35/37/17 34/36/16 
f 16/17/16 17/18/17 35/37/17 
f 17/18/17 36/38/18 35/37/17 
f 17/18/17 18/19/18 36/38/18 
f 18/19/18 37/39/19 36/38/18 
f 18/19/18 19/20/19 37/39/19 
f 19/20/19 21/22/2 37/39/19 
f 19/20/19 3/3/2 21/22/2 
f 21/22/2 38/40/3 39/41/2 
f 21/22/2 20/21/3 38/40/3 
f 20/21/3 40/42/4 38/40/3 
f 20/21/3 22/23/4 40/42/4 
f 22/23/4 41/43/5 40/42/4 
f 22/23/4 23/24/5 41/43/5 
f 23/24/5 42/44/6 41/43/5 
f 23/24/5 24/25/6 42/44/6 
f 24/27/6 43/45/7 42/46/6 
f 24/27/6 25/26/7 43/45/7 
f 25/26/7 44/47/8 43/45/7 
f 25/26/7 26/28/8 44/47/8 
f 26/28/8 45/48/9 44/47/8 
f 26/28/8 27/29/9 45/48/9 
f 27/29/9 46/49/10 45/48/9 
f 27/29/9 28/30/10 46/49/10 
f 28/30/10 47/50/11 46/49/10 
f 28/30/10 29/31/11 47/50/11 
f 29/31/11 48/51/12 47/50/11 
f 29/31/11 30/32/12 48/51/12 
f 30/32/12 49/52/13 48/51/12 
f 30/32/12 31/33/13 49/52/13 
f 31/33/13 50/53/14 49/52/13 
f 31/33/13 32/34/14 50/53/14 
f 32/34/14 51/54/15 50/53/14 
f 32/34/14 33/35/15 51/54/15 
f 33/35/15 52/55/16 51/54/15 
f 33/35/15 34/36/16 52/55/16 
f 34/36/16 53/56/17 52/55/16 
f 34/36/16 35/37/17 53/56/17 
f 35/37/17 54/57/18 53/56/17 
f 35/37/17 36/38/18 54/57/18 
f 36/38/18 55/58/19 54/57/18 
f 36/38/18 37/39/19 55/58/19 
f 37/39/19 39/41/2 55/58/19 
f 37/39/19 21/22/2 39/41/2 
f 39/41/2 56/59/3 57/60/2 
f 39/41/2 38/40/3 56/59/3 
f 38/40/3 58/61/20 56/59/3 
f 38/40/3 40/42/4 58/61/20 
f 40/42/4 59/62/5 58/61/20 
f 40/42/4 41/43/5 59/62/5 
f 41/43/5 60/63/6 59/62/5 
f 41/43/5 42/44/6 60/63/6 
f 42/46/6 61/64/7 60/65/6 
f 42/46/6 43/45/7 61/64/7 
f 43/45/7 62/66/8 61/64/7 
f 43/45/7 44/47/8 62/66/8 
f 44/47/8 63/67/9 62/66/8 
f 44/47/8 45/48/9 63/67/9 
f 45/48/9 64/68/21 63/67/9 
f 45/48/9 46/49/10 64/68/21 
f 46/49/10 65/69/11 64/68/21 
f 46/49/10 47/50/11 65/69/11 
f 47/50/11 66/70/22 65/69/11 
f 47/50/11 48/51/12 66/70/22 
f 48/51/12 67/71/23 66/70/22 
f 48/51/12 49/52/13 67/71/23 
f 49/52/13 68/72/14 67/71/23 
f 49/52/13 50/53/14 68/72/14 
f 50/53/14 69/73/15 68/72/14 
f 50/53/14 51/54/15 69/73/15 
f 51/54/15 70/74/16 69/73/15 
f 51/54/15 52/55/16 70/74/16 
f 52/55/16 71/75/17 70/74/16 
f 52/55/16 53/56/17 71/75/17 
f 53/56/17 72/76/24 71/75/17 
f 53/56/17 54/57/18 72/76/24 
f 54/57/18 73/77/25 72/76/24 
f 54/57/18 55/58/19 73/77/25 
f 55/58/19 57/60/2 73/77/25 
f 55/58/19 39/41/2 57/60/2 
f 57/60/2 74/78/26 75/79/27 
f 57/60/2 56/59/3 74/78/26 
f 56/59/3 76/80/20 74/78/26 
f 56/59/3 58/61/20 76/80/20 
f 58/61/20 77/81/28 76/80/20 
f 58/61/20 59/62/5 77/81/28 
f 59/62/5 78/82/29 77/81/28 
f 59/62/5 60/63/6 78/82/29 
f 60/65/6 79/83/30 78/84/29 
f 60/65/6 61/64/7 79/83/30 
f 61/64/7 80/85/31 79/83/30 
f 61/64/7 62/66/8 80/85/31 
f 62/66/8 81/86/32 80/85/31 
f 62/66/8 63/67/9 81/86/32 
f 63/67/9 82/87/21 81/86/32 
f 63/67/9 64/68/21 82/87/21 
f 64/68/21 83/88/33 82/87/21 
f 64/68/21 65/69/11 83/88/33 
f 65/69/11 84/89/22 83/88/33 
f 65/69/11 66/70/22 84/89/22 
f 66/70/22 85/90/23 84/89/22 
f 66/70/22 67/71/23 85/90/23 
f 67/71/23 86/91/34 85/90/23 
f 67/71/23 68/72/14 86/91/34 
f 68/72/14 87/92/35 86/91/34 
f 68/72/14 69/73/15 87/92/35 
f 69/73/15 88/93/36 87/92/35 
f 69/73/15 70/74/16 88/93/36 
f 70/74/16 89/94/37 88/93/36 
f 70/74/16 71/75/17 89/94/37 
f 71/75/17 90/95/24 89/94/37 
f 71/75/17 72/76/24 90/95/24 
f 72/76/24 91/96/25 90/95/24 
f 72/76/24 73/77/25 91/96/25 
f 73/77/25 75/79/27 91/96/25 
f 73/77/25 57/60/2 75/79/27 
f 75/79/27 92/97/3 93/98/2 
f 75/79/27 74/78/26 92/97/3 
f 74/78/26 94/99/4 92/97/3 
f 74/78/26 76/80/20 94/99/4 
f 76/80/20 95/100/5 94/99/4 
f 76/80/20 77/81/28 95/100/5 
f 77/81/28 96/101/6 95/100/5 
f 77/81/28 78/82/29 96/101/6 
f 78/84/29 97/102/7 96/103/6 
f 78/84/29 79/83/30 97/102/7 
f 79/83/30 98/104/8 97/102/7 
f 79/83/30 80/85/31 98/104/8 
f 80/85/31 99/105/9 98/104/8 
f 80/85/31 81/86/32 99/105/9 
f 81/86/32 100/106/10 99/105/9 
f 81/86/32 82/87/21 100/106/10 
f 82/87/21 101/107/11 100/106/10 
f 82/87/21 83/88/33 101/107/11 
f 83/88/33 102/108/12 101/107/11 
f 83/88/33 84/89/22 102/108/12 
f 84/89/22 103/109/13 102/108/12 
f 84/89/22 85/90/23 103/109/13 
f 85/90/23 104/110/14 103/109/13 
f 85/90/23 86/91/34 104/110/14 
f 86/91/34 105/111/15 104/110/14 
f 86/91/34 87/92/35 105/111/15 
f 87/92/35 106/112/16 105/111/15 
f 87/92/35 88/93/36 106/112/16 
f 88/93/36 107/113/17 106/112/16 
f 88/93/36 89/94/37 107/113/17 
f 89/94/37 108/114/18 107/113/17 
f 89/94/37 90/95/24 108/114/18 
f 90/95/24 109/115/19 108/114/18 
f 90/95/24 91/96/25 109/115/19 
f 91/96/25 93/98/2 109/115/19 
f 91/96/25 75/79/27 93/98/2 
s 1
f 110/116/38 93/98/38 92/97/38 
f 110/116/38 92/97/38 94/99/38 
f 110/116/38 94/99/38 95/100/38 
f 110/116/38 95/100/38 96/101/38 
f 110/116/38 96/103/38 97/102/38 
f 110/116/38 97/102/38 98/104/38 
f 110/116/38 98/104/38 99/105/38 
f 110/116/38 99/105/38 100/106/38 
f 110/116/38 100/106/38 101/107/38 
f 110/116/38 101/107/38 102/108/38 
f 110/116/38 102/108/38 103/109/38 
f 110/116/38 103/109/38 104/110/38 
f 110/116/38 104/110/38 105/111/38 
f 110/116/38 105/111/38 106/112/38 
f 110/116/38 106/112/38 107/113/38 
f 110/116/38 107/113/38 108/114/38 
f 110/116/38 108/114/38 109/115/38 
f 110/116/38 109/115/38 93/98/38 
# 216 faces

