# 3ds Max Wavefront OBJ Exporter v0.97b - (c)2007 guruware
# File Created: 13.03.2018 16:42:35

mtllib pan2.mtl

#
# object Bread
#

v  -0.2949 0.2658 0.4999
v  -0.2906 0.1662 0.5150
v  -0.2256 0.2299 0.6718
v  -0.2143 0.1286 0.6690
v  -0.2437 0.0909 0.5181
v  -0.1978 0.0822 0.6365
v  -0.2765 0.1214 0.2138
v  -0.3361 0.2146 0.2025
v  -0.3534 0.3174 0.2768
v  -0.0753 0.0245 0.6982
v  -0.0714 0.0119 0.5500
v  -0.0436 0.0091 0.2547
v  0.1175 0.0226 0.5745
v  0.0837 0.0292 0.6965
v  0.1853 0.0328 0.2881
v  0.2185 0.1201 0.5888
v  0.1424 0.0824 0.7210
v  0.2485 0.2463 0.5973
v  0.1672 0.2078 0.7179
v  0.3205 0.2786 0.4239
v  0.3170 0.1429 0.3068
v  0.1999 0.3524 0.5984
v  0.1287 0.3036 0.6983
v  0.2681 0.4005 0.4225
v  0.0721 0.3973 0.6186
v  0.0386 0.3319 0.6965
v  -0.3433 0.3338 0.0930
v  -0.2453 0.1268 -0.0505
v  -0.3151 0.2250 -0.0607
v  -0.3349 0.3526 -0.0824
v  -0.0065 0.0116 -0.0146
v  0.2266 0.0365 0.0236
v  0.3645 0.2934 0.2604
v  0.4009 0.2773 0.0804
v  0.3572 0.1502 0.0469
v  0.3292 0.3676 0.2749
v  -0.3004 0.3152 -0.3455
v  -0.2776 0.2040 -0.3295
v  -0.2063 0.1128 -0.3139
v  -0.0089 0.0129 -0.2800
v  0.2078 0.0333 -0.2491
v  0.3307 0.1339 -0.2339
v  0.3793 0.2553 -0.1037
v  0.3595 0.2488 -0.3003
v  -0.2271 0.2757 -0.6513
v  -0.2108 0.1703 -0.6403
v  -0.1570 0.0921 -0.5912
v  -0.1299 0.1183 -0.7520
v  -0.1448 0.2467 -0.8010
v  -0.0094 0.0171 -0.5306
v  0.0072 0.0703 -0.7691
v  0.1748 0.0287 -0.5283
v  0.1899 0.0834 -0.7392
v  0.2795 0.1120 -0.5636
v  0.3133 0.2211 -0.5313
v  0.2684 0.2139 -0.7298
v  -0.1906 0.5031 -0.3822
v  0.0680 0.5397 -0.4018
v  -0.1332 0.4667 -0.5846
v  0.0714 0.4869 -0.5892
v  0.0827 0.3930 -0.7229
v  -0.1074 0.3939 -0.7136
v  -0.2002 0.3877 -0.6146
v  -0.2662 0.4268 -0.3658
v  0.1697 0.1999 -0.8091
v  0.1819 0.3746 -0.6970
v  0.2500 0.3579 -0.6556
v  0.0664 0.2081 -0.8415
v  0.0428 0.2108 0.7436
v  -0.1756 0.2979 0.6761
v  -0.1418 0.3453 0.6571
v  0.0024 0.0832 0.7468
v  -0.2822 0.4421 -0.2002
v  -0.1973 0.5114 -0.2705
v  -0.3083 0.4347 0.1583
v  -0.3014 0.4495 0.0501
v  -0.2912 0.4525 -0.0608
v  -0.2035 0.5296 -0.0922
v  -0.2091 0.5330 -0.0010
v  -0.2151 0.5203 0.0904
v  0.0948 0.5744 -0.1001
v  0.1019 0.5667 -0.0246
v  0.0854 0.5655 -0.1739
v  0.2890 0.4507 -0.2994
v  0.3027 0.4494 -0.2228
v  0.2718 0.4414 -0.3724
v  0.3411 0.3520 -0.3012
v  0.3197 0.3467 -0.4209
v  0.2932 0.3375 -0.5269
v  -0.2231 0.3394 0.5794
v  -0.2652 0.3747 0.4578
v  -0.3004 0.4027 0.3198
v  -0.2184 0.4845 0.2965
v  -0.1939 0.4625 0.4054
v  -0.1658 0.4255 0.5099
v  0.0737 0.5418 0.2884
v  0.0823 0.5142 0.3663
v  0.3159 0.4661 0.0859
v  0.3204 0.4569 0.1541
v  0.0625 0.5531 0.2144
v  0.3051 0.4654 0.0198
v  0.3794 0.3751 0.0764
v  0.3714 0.3747 -0.0226
v  0.3552 0.3691 -0.1156
v  -0.2826 0.4435 -0.1046
v  -0.2609 0.4455 -0.1648
v  -0.3085 0.3978 -0.1106
v  -0.2013 0.5101 -0.1273
v  -0.1880 0.4897 -0.2152
v  0.0784 0.5450 -0.2026
v  0.0801 0.5071 -0.3168
v  0.2609 0.4277 -0.3939
v  0.2476 0.3996 -0.5134
v  0.2750 0.3401 -0.5381
v  0.2611 0.2948 -0.6313
v  -0.3018 0.4056 0.2696
v  -0.2951 0.4242 0.2032
v  -0.3325 0.3650 0.2537
v  -0.2193 0.4780 0.2573
v  -0.2150 0.4894 0.1491
v  0.0573 0.5438 0.1877
v  0.0944 0.5311 0.0422
v  0.2913 0.4562 -0.0130
v  0.2926 0.4442 -0.1496
v  0.3361 0.3742 -0.1376
v  0.3266 0.3709 -0.2195
v  0.3453 0.3096 -0.2438
v  0.0808 0.4557 0.4182
v  -0.1463 0.3690 0.5678
v  0.0640 0.4162 0.5125
v  0.2967 0.4239 0.2054
v  0.3559 0.3304 0.1672
v  -0.1849 0.3206 0.6037
# 133 vertices

vn -0.9337 0.1706 0.3149
vn -0.9361 -0.2699 0.2257
vn -0.6620 0.1733 0.7292
vn -0.6547 -0.3340 0.6781
vn -0.8385 -0.5141 0.1803
vn -0.6513 -0.5330 0.5401
vn -0.8414 -0.5397 -0.0283
vn -0.9369 -0.3493 -0.0141
vn -0.9843 0.1046 0.1419
vn -0.1817 -0.9806 0.0739
vn -0.4390 -0.8944 0.0859
vn -0.1954 -0.9802 0.0319
vn -0.4177 -0.9085 0.0057
vn -0.4229 -0.9045 -0.0550
vn -0.1720 -0.9849 -0.0203
vn 0.0494 -0.9985 0.0225
vn 0.0301 -0.9976 0.0624
vn 0.0943 -0.9955 0.0030
vn 0.6589 -0.7275 0.1911
vn 0.8183 -0.4890 0.3022
vn 0.3659 -0.7124 0.5989
vn 0.5577 -0.4484 0.6985
vn 0.8772 0.0734 0.4745
vn 0.5742 0.0929 0.8134
vn 0.9409 0.0697 0.3313
vn 0.8300 -0.5281 0.1794
vn 0.6320 -0.7682 0.1019
vn 0.5968 0.6169 0.5131
vn 0.3616 0.4942 0.7906
vn 0.7644 0.5357 0.3587
vn 0.0722 0.8958 0.4385
vn -0.0391 0.5941 0.8034
vn -0.9932 0.1036 -0.0531
vn -0.8104 -0.5789 -0.0906
vn -0.9215 -0.3771 -0.0925
vn -0.9857 0.1437 -0.0875
vn -0.4331 -0.9006 -0.0381
vn -0.1578 -0.9873 -0.0162
vn 0.1049 -0.9945 0.0042
vn 0.9717 0.1147 0.2065
vn 0.9974 -0.0225 0.0681
vn 0.8356 -0.5488 0.0263
vn 0.6492 -0.7600 0.0299
vn 0.8972 0.3828 0.2204
vn -0.9837 0.0188 -0.1786
vn -0.8986 -0.4239 -0.1134
vn -0.7827 -0.6173 -0.0799
vn -0.1862 -0.9825 -0.0082
vn -0.4491 -0.8933 -0.0163
vn 0.0969 -0.9953 0.0018
vn 0.6323 -0.7735 -0.0435
vn 0.8308 -0.5516 -0.0741
vn 0.9919 -0.0861 -0.0929
vn 0.9893 -0.0474 -0.1377
vn -0.9171 0.0720 -0.3922
vn -0.8694 -0.3931 -0.2994
vn -0.7671 -0.6244 -0.1474
vn -0.5968 -0.4058 -0.6922
vn -0.5445 0.0920 -0.8337
vn -0.1808 -0.9773 -0.1106
vn -0.4080 -0.9043 -0.1254
vn -0.3566 -0.9078 -0.2210
vn -0.1224 -0.9668 -0.2244
vn 0.0707 -0.9896 -0.1254
vn 0.0873 -0.9705 -0.2248
vn 0.5987 -0.7946 -0.1007
vn 0.8147 -0.5535 -0.1730
vn 0.9792 -0.0618 -0.1930
vn 0.8281 0.0138 -0.5604
vn 0.5702 -0.5440 -0.6155
vn -0.4620 0.8664 -0.1896
vn 0.2744 0.9615 0.0137
vn -0.3630 0.8451 -0.3926
vn 0.2207 0.8986 -0.3794
vn 0.1316 0.6890 -0.7127
vn -0.2991 0.6866 -0.6626
vn -0.7567 0.5098 -0.4094
vn -0.8507 0.4808 -0.2124
vn 0.4363 0.0036 -0.8998
vn 0.4286 0.6663 -0.6102
vn 0.7721 0.5297 -0.3511
vn 0.0745 0.0217 -0.9970
vn -0.0676 -0.4415 -0.8947
vn -0.0053 0.1755 0.9845
vn -0.4694 0.4236 0.7747
vn -0.2943 0.7032 0.6473
vn -0.0805 -0.2803 0.9565
vn -0.3710 -0.2510 0.8941
vn -0.7343 0.6766 0.0546
vn -0.3271 0.9354 0.1345
vn -0.7525 0.6360 0.1708
vn -0.8280 0.5605 -0.0168
vn -0.8020 0.5836 -0.1271
vn -0.4317 0.8695 -0.2400
vn -0.4090 0.9123 0.0202
vn -0.3181 0.9090 0.2692
vn 0.2015 0.9793 -0.0174
vn 0.3213 0.9050 0.2788
vn 0.0515 0.9481 -0.3137
vn 0.6677 0.7239 -0.1735
vn 0.7723 0.6351 0.0177
vn 0.4336 0.8054 -0.4042
vn 0.9492 0.3048 -0.0783
vn 0.9191 0.3292 -0.2166
vn 0.7267 0.5663 -0.3889
vn -0.5443 0.5920 0.5944
vn -0.7524 0.5515 0.3603
vn -0.7781 0.5884 0.2198
vn -0.4638 0.8820 0.0833
vn -0.3995 0.8554 0.3298
vn -0.2166 0.8051 0.5521
vn 0.1479 0.9626 0.2270
vn 0.3002 0.8068 0.5089
vn 0.6008 0.7993 -0.0129
vn 0.6878 0.6626 0.2966
vn 0.0278 0.9978 -0.0610
vn 0.4730 0.8537 -0.2179
vn 0.9205 0.3810 0.0863
vn 0.9052 0.4073 -0.1210
vn 0.7790 0.5672 -0.2674
vn -0.7618 0.5954 -0.2552
vn -0.6862 0.6848 -0.2452
vn -0.8192 0.5010 -0.2790
vn -0.4617 0.8472 -0.2627
vn -0.3253 0.9090 -0.2606
vn -0.0700 0.9479 -0.3109
vn 0.0970 0.9465 -0.3078
vn 0.4094 0.8772 -0.2510
vn 0.7480 0.6122 -0.2562
vn 0.7987 0.5040 -0.3288
vn 0.7790 0.5099 -0.3649
vn -0.7411 0.6623 0.1105
vn -0.6711 0.7342 0.1028
vn -0.8099 0.5809 0.0807
vn -0.4367 0.8970 0.0682
vn -0.2789 0.9561 0.0897
vn -0.1181 0.9854 -0.1229
vn 0.2532 0.9674 -0.0033
vn 0.4173 0.9051 -0.0817
vn 0.7946 0.6059 -0.0390
vn 0.8194 0.5610 -0.1179
vn 0.9118 0.3962 -0.1077
vn 0.9350 0.3331 -0.1222
vn 0.3684 0.8330 0.4129
vn -0.1103 0.9234 0.3677
vn 0.0624 0.9390 0.3381
vn 0.6878 0.6868 0.2353
vn 0.5993 0.7751 0.2001
vn -0.0260 0.9732 -0.2283
vn 0.8500 0.5259 0.0291
vn -0.4465 0.7697 -0.4564
vn -0.1370 0.8222 -0.5525
vn -0.7561 0.5896 -0.2839
vn -0.8623 0.2528 -0.4387
vn -0.5438 0.8116 0.2133
vn -0.2054 0.9094 0.3616
vn 0.3193 0.8992 0.2993
vn 0.6277 0.7601 -0.1680
vn 0.9174 0.3407 -0.2058
vn 0.4292 0.7633 -0.4829
vn 0.0371 0.8372 -0.5457
vn -0.4730 0.8701 -0.1385
vn -0.7546 0.6548 0.0428
vn -0.9214 0.3292 -0.2064
vn -0.6345 0.6999 0.3280
vn -0.2755 0.8556 0.4382
vn 0.2688 0.8375 0.4757
vn 0.7232 0.6694 0.1698
vn 0.9527 0.2811 0.1158
vn 0.9617 0.2733 -0.0196
vn 0.6287 0.6881 -0.3624
vn 0.3352 0.8645 -0.3747
vn -0.0841 0.9465 -0.3116
vn -0.4529 0.6978 0.5549
vn -0.3326 0.9072 0.2575
vn -0.0490 0.7028 0.7097
vn 0.3568 0.6224 0.6966
vn 0.7085 0.3999 0.5815
vn 0.8875 0.3858 0.2519
vn 0.0074 0.9830 0.1832
# 180 vertex normals

vt 0.9464 0.7152 0.0000
vt 0.9428 0.7225 0.0000
vt 0.8881 0.7975 0.0000
vt 0.4907 0.1039 0.0000
vt 0.4811 0.1025 0.0000
vt 0.4260 0.1776 0.0000
vt 0.4658 0.1761 0.0000
vt 0.5047 0.1194 0.0000
vt 0.4380 0.3217 0.0000
vt 0.3876 0.3271 0.0000
vt 0.4224 0.1848 0.0000
vt 0.3729 0.2915 0.0000
vt 0.2039 0.5301 0.0000
vt 0.2524 0.5089 0.0000
vt 0.2024 0.4791 0.0000
vt 0.2706 0.4682 0.0000
vt 0.2836 0.3635 0.0000
vt 0.1913 0.3775 0.0000
vt 0.1275 0.4875 0.0000
vt 0.1409 0.5295 0.0000
vt 0.1006 0.3890 0.0000
vt 0.0875 0.4925 0.0000
vt 0.4940 0.7792 0.0000
vt 0.5181 0.7722 0.0000
vt 0.4629 0.7411 0.0000
vt 0.8572 0.1422 0.0000
vt 0.8827 0.1382 0.0000
vt 0.7928 0.0789 0.0000
vt 0.8137 0.0805 0.0000
vt 0.9436 0.2212 0.0000
vt 0.9406 0.2772 0.0000
vt 0.0485 0.3955 0.0000
vt 0.4894 0.7619 0.0000
vt 0.5303 0.7624 0.0000
vt 0.5578 0.8196 0.0000
vt 0.5901 0.8102 0.0000
vt 0.4729 0.6782 0.0000
vt 0.4288 0.6789 0.0000
vt 0.6378 0.7721 0.0000
vt 0.6659 0.8093 0.0000
vt 0.3815 0.3795 0.0000
vt 0.4645 0.4482 0.0000
vt 0.4053 0.4531 0.0000
vt 0.3886 0.4635 0.0000
vt 0.2712 0.2725 0.0000
vt 0.1766 0.2849 0.0000
vt 0.0843 0.2980 0.0000
vt 0.9808 0.2994 0.0000
vt 1.0116 0.3856 0.0000
vt 0.9746 0.4016 0.0000
vt 0.0325 0.3060 0.0000
vt 0.4215 0.6076 0.0000
vt 0.3919 0.6006 0.0000
vt 0.4178 0.5894 0.0000
vt 0.4371 0.5817 0.0000
vt 0.4975 0.5743 0.0000
vt 0.1776 0.1936 0.0000
vt 0.2558 0.1820 0.0000
vt 0.0917 0.2042 0.0000
vt 0.0430 0.2095 0.0000
vt 0.9523 0.5360 0.0000
vt 0.9934 0.4737 0.0000
vt 0.9766 0.5678 0.0000
vt 0.4798 0.7358 0.0000
vt 0.4936 0.7305 0.0000
vt 0.5392 0.7070 0.0000
vt 0.5622 0.7840 0.0000
vt 0.5495 0.8074 0.0000
vt 0.1778 0.1074 0.0000
vt 0.2363 0.0866 0.0000
vt 0.2255 0.0312 0.0000
vt 0.1712 0.0254 0.0000
vt 0.1048 0.1082 0.0000
vt 0.0988 0.0356 0.0000
vt 0.0633 0.0960 0.0000
vt 0.9088 0.6938 0.0000
vt 0.9375 0.6783 0.0000
vt 0.8994 0.7733 0.0000
vt 0.8330 0.7778 0.0000
vt 0.8586 0.2931 0.0000
vt 0.6412 0.2837 0.0000
vt 0.8104 0.1962 0.0000
vt 0.6383 0.1940 0.0000
vt 0.6288 0.1300 0.0000
vt 0.7886 0.1345 0.0000
vt 0.8668 0.1818 0.0000
vt 0.9222 0.3009 0.0000
vt 0.8893 0.1643 0.0000
vt 0.9510 0.3106 0.0000
vt 0.8201 0.0926 0.0000
vt 0.5557 0.0887 0.0000
vt 0.5454 0.1424 0.0000
vt 0.4727 0.1267 0.0000
vt 0.4881 0.1622 0.0000
vt 0.6425 0.0732 0.0000
vt 0.8159 0.8113 0.0000
vt 0.7284 0.8268 0.0000
vt 0.6783 0.7921 0.0000
vt 0.6624 0.8319 0.0000
vt 0.8460 0.7996 0.0000
vt 0.8176 0.7905 0.0000
vt 0.6742 0.0666 0.0000
vt 0.5838 0.7694 0.0000
vt 0.5801 0.8318 0.0000
vt 0.6187 0.7828 0.0000
vt 0.6964 0.8334 0.0000
vt 0.5323 0.8056 0.0000
vt 0.7084 0.0682 0.0000
vt 0.5515 0.7866 0.0000
vt 0.9356 0.3802 0.0000
vt 0.9800 0.4365 0.0000
vt 0.8643 0.3465 0.0000
vt 0.9576 0.5517 0.0000
vt 0.9518 0.5000 0.0000
vt 0.9955 0.6085 0.0000
vt 0.9870 0.5205 0.0000
vt 0.9433 0.4469 0.0000
vt 0.8695 0.4319 0.0000
vt 0.8742 0.4755 0.0000
vt 0.8793 0.5192 0.0000
vt 0.6186 0.4281 0.0000
vt 0.6127 0.4642 0.0000
vt 0.6265 0.3928 0.0000
vt 0.4554 0.3327 0.0000
vt 0.4438 0.3693 0.0000
vt 0.4698 0.2978 0.0000
vt 0.4115 0.3318 0.0000
vt 0.4295 0.2745 0.0000
vt 0.4518 0.2238 0.0000
vt 0.4349 0.2217 0.0000
vt 0.3961 0.3323 0.0000
vt 0.8859 0.7533 0.0000
vt 0.9214 0.6951 0.0000
vt 0.9510 0.6290 0.0000
vt 0.8820 0.6179 0.0000
vt 0.8614 0.6700 0.0000
vt 0.8378 0.7200 0.0000
vt 0.6364 0.6140 0.0000
vt 0.6291 0.6513 0.0000
vt 0.4327 0.5171 0.0000
vt 0.4289 0.5497 0.0000
vt 0.6458 0.5786 0.0000
vt 0.4418 0.4855 0.0000
vt 0.3793 0.5126 0.0000
vt 0.3860 0.4651 0.0000
vt 0.3997 0.4207 0.0000
vt 0.3794 0.4263 0.0000
vt 0.3613 0.5145 0.0000
vt 0.3097 0.6412 0.0000
vt 0.2732 0.6538 0.0000
vt 0.3060 0.6269 0.0000
vt 0.2959 0.6864 0.0000
vt 0.2428 0.6946 0.0000
vt 0.2504 0.8421 0.0000
vt 0.1813 0.8440 0.0000
vt 0.1347 0.9448 0.0000
vt 0.0624 0.9386 0.0000
vt 0.0474 0.9540 0.0000
vt -0.0090 0.9470 0.0000
vt 0.3027 0.5964 0.0000
vt 0.2629 0.6032 0.0000
vt 0.2918 0.5802 0.0000
vt 0.2988 0.6425 0.0000
vt 0.2336 0.6500 0.0000
vt 0.2684 0.7985 0.0000
vt 0.1821 0.8258 0.0000
vt 0.1571 0.9372 0.0000
vt 0.0748 0.9443 0.0000
vt 0.0838 0.9678 0.0000
vt 0.0340 0.9664 0.0000
vt 0.0201 0.9779 0.0000
vt 0.1863 0.7718 0.0000
vt 0.2533 0.6332 0.0000
vt 0.2409 0.7533 0.0000
vt 0.0805 0.9106 0.0000
vt 0.1252 0.9214 0.0000
vt 0.2073 0.8735 0.0000
vt 0.0636 0.9466 0.0000
vt 0.8677 0.4150 0.0000
vt 0.6324 0.3790 0.0000
vt 0.9360 0.4259 0.0000
vt 0.9578 0.4230 0.0000
vt 0.9177 0.3971 0.0000
vt 0.8565 0.3730 0.0000
vt 0.6310 0.3244 0.0000
vt 0.4901 0.2303 0.0000
vt 0.4788 0.1738 0.0000
vt 0.4671 0.2184 0.0000
vt 0.4790 0.2875 0.0000
vt 0.8828 0.5992 0.0000
vt 0.9521 0.6050 0.0000
vt 0.9780 0.5974 0.0000
vt 0.9465 0.5733 0.0000
vt 0.8791 0.5474 0.0000
vt 0.6190 0.4962 0.0000
vt 0.4523 0.4044 0.0000
vt 0.4237 0.3710 0.0000
vt 0.4080 0.3593 0.0000
vt 0.4157 0.4101 0.0000
vt 0.4534 0.4698 0.0000
vt 0.6502 0.5658 0.0000
vt 0.8539 0.7649 0.0000
vt 0.8214 0.7478 0.0000
vt 0.6305 0.6762 0.0000
vt 0.4488 0.5743 0.0000
vt 0.3991 0.5560 0.0000
vt 0.6446 0.7213 0.0000
# 207 texture coords

g Bread
usemtl Material_001
s 1
f 1/1/1 2/2/2 3/3/3 
f 4/4/4 3/5/3 2/6/2 
f 2/6/2 5/7/5 4/4/4 
f 6/8/6 4/4/4 5/7/5 
f 5/7/5 2/6/2 7/9/7 
f 8/10/8 7/9/7 2/6/2 
f 2/6/2 1/11/1 8/10/8 
f 9/12/9 8/10/8 1/11/1 
f 10/13/10 6/14/11 11/15/12 
f 5/16/13 11/15/12 6/14/11 
f 5/16/13 7/17/14 11/15/12 
f 12/18/15 11/15/12 7/17/14 
f 11/15/12 13/19/16 10/13/10 
f 14/20/17 10/13/10 13/19/16 
f 13/19/16 11/15/12 15/21/18 
f 12/18/15 15/21/18 11/15/12 
f 13/19/19 16/22/20 14/20/21 
f 17/23/22 14/24/21 16/25/20 
f 16/26/20 18/27/23 17/28/22 
f 19/29/24 17/28/22 18/27/23 
f 18/27/23 16/26/20 20/30/25 
f 21/31/26 20/30/25 16/26/20 
f 16/22/20 13/19/19 21/32/26 
f 15/21/27 21/32/26 13/19/19 
f 18/33/23 22/34/28 19/35/24 
f 23/36/29 19/35/24 22/34/28 
f 22/34/28 18/33/23 24/37/30 
f 20/38/25 24/37/30 18/33/23 
f 22/34/28 25/39/31 23/36/29 
f 26/40/32 23/36/29 25/39/31 
f 22/34/28 24/37/30 25/39/31 
f 8/10/8 9/12/9 27/41/33 
f 7/9/7 8/10/8 28/42/34 
f 29/43/35 28/42/34 8/10/8 
f 8/10/8 27/41/33 29/43/35 
f 30/44/36 29/43/35 27/41/33 
f 7/17/14 28/45/37 12/18/15 
f 31/46/38 12/18/15 28/45/37 
f 15/21/18 12/18/15 32/47/39 
f 31/46/38 32/47/39 12/18/15 
f 20/30/25 21/31/26 33/48/40 
f 33/48/40 21/31/26 34/49/41 
f 35/50/42 34/49/41 21/31/26 
f 21/32/26 15/21/27 35/51/42 
f 32/47/43 35/51/42 15/21/27 
f 36/52/44 24/37/30 33/53/40 
f 20/38/25 33/53/40 24/37/30 
f 37/54/45 38/55/46 30/44/36 
f 29/43/35 30/44/36 38/55/46 
f 38/55/46 39/56/47 29/43/35 
f 28/42/34 29/43/35 39/56/47 
f 31/46/38 28/45/37 40/57/48 
f 39/58/49 40/57/48 28/45/37 
f 40/57/48 41/59/50 31/46/38 
f 32/47/39 31/46/38 41/59/50 
f 41/59/51 42/60/52 32/47/43 
f 35/51/42 32/47/43 42/60/52 
f 42/61/52 43/62/53 35/50/42 
f 34/49/41 35/50/42 43/62/53 
f 42/61/52 44/63/54 43/62/53 
f 45/64/55 46/65/56 37/54/45 
f 38/55/46 37/54/45 46/65/56 
f 46/65/56 47/66/57 38/55/46 
f 39/56/47 38/55/46 47/66/57 
f 46/65/56 48/67/58 47/66/57 
f 46/65/56 45/64/55 48/67/58 
f 49/68/59 48/67/58 45/64/55 
f 40/57/48 39/58/49 50/69/60 
f 47/70/61 50/69/60 39/58/49 
f 47/70/61 48/71/62 50/69/60 
f 51/72/63 50/69/60 48/71/62 
f 50/69/60 52/73/64 40/57/48 
f 41/59/50 40/57/48 52/73/64 
f 52/73/64 50/69/60 53/74/65 
f 51/72/63 53/74/65 50/69/60 
f 52/73/66 54/75/67 41/59/51 
f 42/60/52 41/59/51 54/75/67 
f 54/76/67 55/77/68 42/61/52 
f 44/63/54 42/61/52 55/77/68 
f 55/77/68 54/76/67 56/78/69 
f 53/79/70 56/78/69 54/76/67 
f 52/73/66 53/74/70 54/75/67 
f 57/80/71 58/81/72 59/82/73 
f 60/83/74 59/82/73 58/81/72 
f 60/83/74 61/84/75 59/82/73 
f 62/85/76 59/82/73 61/84/75 
f 59/82/73 63/86/77 57/80/71 
f 64/87/78 57/80/71 63/86/77 
f 63/86/77 45/88/55 64/87/78 
f 37/89/45 64/87/78 45/88/55 
f 45/88/55 63/86/77 49/90/59 
f 62/85/76 49/90/59 63/86/77 
f 59/82/73 62/85/76 63/86/77 
f 65/91/79 66/92/80 56/93/69 
f 67/94/81 56/93/69 66/92/80 
f 66/92/80 65/91/79 61/84/75 
f 68/95/82 61/84/75 65/91/79 
f 49/90/59 62/85/76 68/95/82 
f 61/84/75 68/95/82 62/85/76 
f 56/78/69 53/79/70 65/96/79 
f 65/96/79 53/79/70 68/97/82 
f 51/98/83 68/97/82 53/79/70 
f 49/68/59 68/97/82 48/67/58 
f 51/98/83 48/67/58 68/97/82 
f 69/99/84 23/36/29 26/40/32 
f 26/40/32 25/39/31 70/100/85 
f 71/101/86 70/100/85 25/39/31 
f 69/99/84 26/40/32 3/3/3 
f 70/100/85 3/3/3 26/40/32 
f 4/4/4 6/8/6 72/102/87 
f 10/103/88 72/104/87 6/105/6 
f 69/99/84 3/3/3 72/106/87 
f 4/4/4 72/102/87 3/5/3 
f 72/104/87 10/103/88 14/107/21 
f 69/108/84 72/102/87 19/29/24 
f 17/28/22 19/29/24 72/102/87 
f 14/24/21 17/23/22 72/109/87 
f 73/110/89 64/87/78 30/111/36 
f 37/89/45 30/111/36 64/87/78 
f 64/87/78 73/110/89 57/80/71 
f 74/112/90 57/80/71 73/110/89 
f 58/81/72 57/80/71 74/112/90 
f 60/83/74 58/81/72 66/92/80 
f 67/94/81 66/92/80 58/81/72 
f 61/84/75 60/83/74 66/92/80 
f 75/113/91 76/114/92 9/115/9 
f 27/116/33 9/115/9 76/114/92 
f 76/114/92 77/117/93 27/116/33 
f 30/111/36 27/116/33 77/117/93 
f 77/117/93 76/114/92 78/118/94 
f 79/119/95 78/118/94 76/114/92 
f 76/114/92 75/113/91 79/119/95 
f 80/120/96 79/119/95 75/113/91 
f 79/119/95 80/120/96 81/121/97 
f 82/122/98 81/121/97 80/120/96 
f 78/118/94 79/119/95 83/123/99 
f 81/121/97 83/123/99 79/119/95 
f 81/121/97 82/122/98 84/124/100 
f 85/125/101 84/124/100 82/122/98 
f 83/123/99 81/121/97 86/126/102 
f 84/124/100 86/126/102 81/121/97 
f 87/127/103 88/128/104 85/125/101 
f 84/124/100 85/125/101 88/128/104 
f 88/128/104 89/129/105 84/124/100 
f 86/126/102 84/124/100 89/129/105 
f 89/129/105 88/128/104 56/93/69 
f 55/130/68 56/93/69 88/128/104 
f 88/128/104 87/127/103 55/130/68 
f 44/131/54 55/130/68 87/127/103 
f 90/132/106 91/133/107 3/3/3 
f 1/1/1 3/3/3 91/133/107 
f 91/133/107 92/134/108 1/1/1 
f 9/115/9 1/1/1 92/134/108 
f 92/134/108 91/133/107 93/135/109 
f 94/136/110 93/135/109 91/133/107 
f 91/133/107 90/132/106 94/136/110 
f 95/137/111 94/136/110 90/132/106 
f 96/138/112 97/139/113 98/140/114 
f 99/141/115 98/140/114 97/139/113 
f 100/142/116 96/138/112 101/143/117 
f 98/140/114 101/143/117 96/138/112 
f 102/144/118 103/145/119 99/141/115 
f 98/140/114 99/141/115 103/145/119 
f 103/145/119 104/146/120 98/140/114 
f 101/143/117 98/140/114 104/146/120 
f 104/146/120 103/145/119 44/131/54 
f 43/147/53 44/131/54 103/145/119 
f 103/145/119 102/144/118 43/147/53 
f 34/148/41 43/147/53 102/144/118 
f 105/149/121 106/150/122 107/151/123 
f 105/149/121 108/152/124 106/150/122 
f 109/153/125 106/150/122 108/152/124 
f 110/154/126 111/155/127 108/152/124 
f 109/153/125 108/152/124 111/155/127 
f 112/156/128 113/157/129 110/154/126 
f 111/155/127 110/154/126 113/157/129 
f 114/158/130 113/157/129 112/156/128 
f 115/159/131 113/157/129 114/158/130 
f 116/160/132 117/161/133 118/162/134 
f 116/160/132 119/163/135 117/161/133 
f 120/164/136 117/161/133 119/163/135 
f 121/165/137 122/166/138 119/163/135 
f 120/164/136 119/163/135 122/166/138 
f 123/167/139 124/168/140 121/165/137 
f 122/166/138 121/165/137 124/168/140 
f 125/169/141 126/170/142 123/167/139 
f 124/168/140 123/167/139 126/170/142 
f 125/169/141 127/171/143 126/170/142 
f 128/172/144 129/173/145 130/174/146 
f 131/175/147 128/172/144 36/176/148 
f 130/174/146 36/176/148 128/172/144 
f 130/174/146 24/177/149 36/176/148 
f 131/175/147 36/176/148 132/178/150 
f 78/118/94 83/123/99 108/179/151 
f 110/180/152 108/179/151 83/123/99 
f 108/179/151 105/181/153 78/118/94 
f 77/117/93 78/118/94 105/181/153 
f 105/181/153 107/182/154 77/117/93 
f 30/111/36 77/117/93 107/182/154 
f 107/182/154 106/183/155 30/111/36 
f 73/110/89 30/111/36 106/183/155 
f 106/183/155 109/184/156 73/110/89 
f 74/112/90 73/110/89 109/184/156 
f 58/81/72 74/112/90 111/185/157 
f 109/184/156 111/185/157 74/112/90 
f 67/94/81 58/81/72 113/186/158 
f 111/185/157 113/186/158 58/81/72 
f 115/187/159 67/94/81 113/186/158 
f 56/93/69 67/94/81 115/187/159 
f 115/187/159 114/188/160 56/93/69 
f 89/129/105 56/93/69 114/188/160 
f 114/188/160 112/189/161 89/129/105 
f 86/126/102 89/129/105 112/189/161 
f 83/123/99 86/126/102 110/180/152 
f 112/189/161 110/180/152 86/126/102 
f 119/190/162 116/191/163 93/135/109 
f 92/134/108 93/135/109 116/191/163 
f 116/191/163 118/192/164 92/134/108 
f 9/115/9 92/134/108 118/192/164 
f 118/192/164 117/193/165 9/115/9 
f 75/113/91 9/115/9 117/193/165 
f 117/193/165 120/194/166 75/113/91 
f 80/120/96 75/113/91 120/194/166 
f 82/122/98 80/120/96 122/195/167 
f 120/194/166 122/195/167 80/120/96 
f 85/125/101 82/122/98 124/196/168 
f 122/195/167 124/196/168 82/122/98 
f 124/196/168 126/197/169 85/125/101 
f 87/127/103 85/125/101 126/197/169 
f 126/197/169 127/198/170 87/127/103 
f 44/131/54 87/127/103 127/198/170 
f 127/198/170 125/199/171 44/131/54 
f 104/146/120 44/131/54 125/199/171 
f 125/199/171 123/200/172 104/146/120 
f 101/143/117 104/146/120 123/200/172 
f 100/142/116 101/143/117 121/201/173 
f 123/200/172 121/201/173 101/143/117 
f 93/135/109 100/142/116 119/190/162 
f 121/201/173 119/190/162 100/142/116 
f 70/100/85 71/101/86 133/202/174 
f 129/203/175 133/202/174 71/101/86 
f 3/3/3 70/100/85 133/202/174 
f 90/132/106 3/3/3 133/202/174 
f 95/137/111 90/132/106 129/203/176 
f 133/202/174 129/203/176 90/132/106 
f 97/139/113 95/137/111 128/204/177 
f 129/203/176 128/204/177 95/137/111 
f 99/141/115 97/139/113 131/205/178 
f 128/204/177 131/205/178 97/139/113 
f 102/144/118 99/141/115 132/206/179 
f 131/205/178 132/206/179 99/141/115 
f 34/148/41 102/144/118 132/206/179 
f 36/52/44 33/53/40 132/206/179 
f 25/39/31 24/37/30 130/207/180 
f 129/203/175 71/101/86 130/207/180 
f 25/39/31 130/207/180 71/101/86 
f 95/137/111 97/139/113 94/136/110 
f 96/138/112 94/136/110 97/139/113 
f 100/142/116 93/135/109 96/138/112 
f 94/136/110 96/138/112 93/135/109 
f 19/35/24 23/36/29 69/99/84 
f 34/148/41 132/206/179 33/53/40 
# 262 faces

