# 3ds Max Wavefront OBJ Exporter v0.97b - (c)2007 guruware
# File Created: 15.03.2018 17:27:18

mtllib nuez.mtl

#
# object Sphere001
#

v  -7.7858 18.5394 -14.1693
v  -7.7655 16.8446 -14.2011
v  -8.5816 16.8730 -14.0702
v  -8.6164 18.6130 -14.0392
v  -9.2971 18.5917 -13.8690
v  -9.2504 16.8643 -13.8990
v  -10.1895 16.8657 -13.4304
v  -10.2529 18.5941 -13.4032
v  -10.7844 16.8954 -12.9108
v  -10.8582 18.6699 -12.8865
v  -11.3196 18.6184 -12.4161
v  -11.2376 16.8758 -12.4376
v  -11.8179 18.5159 -11.7137
v  -11.7273 16.8358 -11.7311
v  -12.0171 16.8346 -10.8444
v  -12.1128 18.5147 -10.8322
v  -12.0627 16.8481 -10.0955
v  -12.1593 18.5496 -10.0876
v  -12.0927 18.5354 -9.3405
v  -11.9973 16.8425 -9.3439
v  -11.7011 16.8501 -8.4768
v  -11.7912 18.5539 -8.4784
v  -11.2648 16.8779 -7.8160
v  -11.3472 18.6224 -7.8215
v  -10.9968 18.5342 -7.3188
v  -10.9205 16.8456 -7.3104
v  -10.4310 18.3742 -6.6708
v  -10.3646 16.7824 -6.6586
v  -9.3610 18.3695 -6.1514
v  -9.3132 16.7787 -6.1361
v  -8.5262 16.8007 -5.9970
v  -8.5600 18.4265 -6.0130
v  -7.8049 18.4095 -5.9139
v  -7.7843 16.7938 -5.8972
v  -6.6626 16.7979 -6.0060
v  -6.6633 18.4163 -6.0220
v  -5.8652 16.8493 -6.3632
v  -5.8518 18.5466 -6.3771
v  -5.2576 16.8818 -6.7388
v  -5.2335 18.6346 -6.7505
v  -4.5868 16.8872 -7.2620
v  -4.5507 18.6509 -7.2706
v  -4.0611 16.9018 -7.8833
v  -4.0157 18.6850 -7.8883
v  -3.6406 18.5909 -8.3806
v  -3.6926 16.8677 -8.3784
v  -3.2272 18.4303 -9.1112
v  -3.2864 16.8041 -9.1133
v  -3.1833 16.8062 -10.2340
v  -3.1224 18.4414 -10.2254
v  -3.3137 16.8174 -10.9641
v  -3.2551 18.4673 -10.9512
v  -3.0771 18.3701 -11.6273
v  -3.1389 16.7798 -11.6442
v  -3.5527 18.3492 -12.4900
v  -3.6062 16.7718 -12.5119
v  -4.5935 16.8333 -13.0658
v  -4.5575 18.5021 -13.0407
v  -5.3170 16.8938 -13.4934
v  -5.2939 18.6619 -13.4657
v  -5.9651 16.9005 -13.8066
v  -5.9535 18.6818 -13.7772
v  -6.6423 18.5748 -14.0498
v  -6.6419 16.8592 -14.0808
v  -8.2237 14.7236 -13.0432
v  -8.5016 16.4802 -14.2403
v  -7.7561 16.4491 -14.3768
v  -7.7221 14.6430 -13.1572
v  -8.6384 14.7003 -12.9269
v  -9.1127 16.4700 -14.0619
v  -9.2258 14.7029 -12.5819
v  -9.9706 16.4722 -13.5733
v  -9.6012 14.7859 -12.1700
v  -10.5140 16.5051 -13.0315
v  -9.9252 14.7295 -11.7720
v  -10.9281 16.4840 -12.5382
v  -10.2301 14.6173 -11.2708
v  -11.3755 16.4397 -11.8016
v  -10.3904 14.6160 -10.6679
v  -11.6402 16.4375 -10.8771
v  -10.4100 14.6542 -10.1190
v  -11.6819 16.4523 -10.0962
v  -10.3760 14.6386 -9.5546
v  -11.6221 16.4461 -9.3127
v  -10.1997 14.6589 -8.9318
v  -11.3515 16.4549 -8.4086
v  -9.8599 14.7338 -8.3450
v  -10.9529 16.4868 -7.7197
v  -9.5656 14.6373 -7.8238
v  -10.6384 16.4534 -7.1926
v  -9.3044 14.4621 -7.3965
v  -10.1305 16.3827 -6.5129
v  -8.7709 14.4570 -7.1010
v  -9.1700 16.3766 -5.9682
v  -8.2605 14.5194 -7.0156
v  -8.4510 16.4008 -5.8231
v  -7.7560 14.5008 -6.9199
v  -7.7732 16.3928 -5.7192
v  -7.1230 14.5082 -6.9790
v  -6.7485 16.3990 -5.8325
v  -6.6979 14.6509 -7.2336
v  -6.0200 16.4564 -6.2050
v  -6.2588 14.7472 -7.5597
v  -5.4650 16.4903 -6.5966
v  -5.7814 14.7650 -7.9947
v  -4.8521 16.4951 -7.1420
v  -5.3952 14.8024 -8.5551
v  -4.3718 16.5128 -7.7898
v  -5.1114 14.6993 -9.0046
v  -4.0352 16.4778 -8.3060
v  -4.8781 14.5236 -9.4365
v  -3.6641 16.4066 -9.0722
v  -4.8401 14.5357 -10.1867
v  -3.5699 16.4064 -10.2407
v  -4.9846 14.5138 -10.8354
v  -3.6891 16.4199 -11.0019
v  -4.8938 14.5219 -11.4540
v  -3.5293 16.3787 -11.7110
v  -3.9562 16.3700 -12.6157
v  -5.2084 14.4671 -11.8145
v  -5.4490 14.6022 -12.0600
v  -4.8582 16.4400 -13.1932
v  -6.1431 14.7771 -12.5517
v  -5.5192 16.5049 -13.6389
v  -6.6865 14.7988 -12.8646
v  -6.1113 16.5113 -13.9656
v  -7.0785 14.6818 -13.0765
v  -6.7296 16.4661 -14.2515
v  -7.6619 13.2732 -11.1095
v  -7.7977 13.3029 -11.0717
v  -7.9514 13.2315 -10.9883
v  -8.1191 13.2997 -10.8656
v  -8.1603 13.2600 -10.7003
v  -8.2459 13.2601 -10.4923
v  -8.2550 13.2699 -10.3915
v  -8.2944 13.2706 -10.1582
v  -8.3012 13.2990 -10.0113
v  -8.3898 13.2592 -9.8663
v  -8.3421 13.2795 -9.6598
v  -8.2501 13.3545 -9.4653
v  -8.2186 13.3663 -9.3061
v  -8.0902 13.3237 -9.2000
v  -7.9458 13.3186 -9.1020
v  -7.8076 13.3810 -9.0737
v  -7.6711 13.3624 -9.0420
v  -7.4997 13.3698 -9.0616
v  -7.3847 13.5124 -9.1460
v  -7.2658 13.6088 -9.2541
v  -7.1366 13.6266 -9.3982
v  -7.0320 13.6639 -9.5840
v  -6.9552 13.5609 -9.7330
v  -6.8920 13.3851 -9.8762
v  -6.8818 13.3973 -10.1249
v  -6.9181 13.4256 -10.4701
v  -6.8666 13.3193 -10.6486
v  -6.8721 13.2964 -10.6326
v  -7.0466 13.2596 -10.7458
v  -7.2345 13.2538 -10.9522
v  -7.3816 13.2859 -11.0125
v  -7.4877 13.2603 -11.0827
# 160 vertices

vn -0.1578 0.0166 -0.9873
vn -0.1536 0.0145 -0.9880
vn -0.2428 0.0124 -0.9700
vn -0.2479 0.0101 -0.9687
vn -0.4465 0.0035 -0.8948
vn -0.4382 -0.0019 -0.8989
vn -0.6582 -0.0122 -0.7527
vn -0.6503 -0.0167 -0.7595
vn -0.7127 -0.0201 -0.7011
vn -0.7214 -0.0254 -0.6921
vn -0.8130 -0.0311 -0.5814
vn -0.8202 -0.0383 -0.5707
vn -0.9494 -0.0480 -0.3103
vn -0.9471 -0.0517 -0.3169
vn -0.9966 -0.0564 -0.0597
vn -0.9966 -0.0563 -0.0595
vn -0.9945 -0.0568 0.0876
vn -0.9947 -0.0562 0.0862
vn -0.9448 -0.0539 0.3232
vn -0.9425 -0.0496 0.3306
vn -0.8329 -0.0435 0.5518
vn -0.8261 -0.0373 0.5623
vn -0.8229 -0.0371 0.5670
vn -0.8271 -0.0346 0.5610
vn -0.7567 -0.0309 0.6530
vn -0.7619 -0.0268 0.6472
vn -0.4367 -0.0113 0.8995
vn -0.4450 -0.0048 0.8955
vn -0.1743 0.0042 0.9847
vn -0.1707 0.0062 0.9853
vn -0.1300 0.0071 0.9915
vn -0.1331 0.0085 0.9911
vn 0.0964 0.0115 0.9953
vn 0.0942 0.0099 0.9955
vn 0.4083 0.0092 0.9128
vn 0.4003 0.0043 0.9164
vn 0.5257 0.0028 0.8506
vn 0.5171 -0.0014 0.8559
vn 0.6150 -0.0032 0.7885
vn 0.6061 -0.0085 0.7953
vn 0.7635 -0.0124 0.6457
vn 0.7562 -0.0174 0.6541
vn 0.7936 -0.0185 0.6082
vn 0.8012 -0.0234 0.5979
vn 0.8676 -0.0255 0.4966
vn 0.8735 -0.0324 0.4857
vn 0.9952 -0.0363 0.0914
vn 0.9949 -0.0376 0.0933
vn 0.9837 -0.0357 -0.1762
vn 0.9829 -0.0335 -0.1809
vn 0.9651 -0.0363 0.2593
vn 0.9672 -0.0402 0.2509
vn 0.8757 -0.0289 -0.4820
vn 0.8803 -0.0233 -0.4738
vn 0.4891 -0.0045 -0.8722
vn 0.4809 0.0028 -0.8768
vn 0.5088 0.0020 -0.8609
vn 0.5010 0.0070 -0.8654
vn 0.4352 0.0084 -0.9003
vn 0.4272 0.0122 -0.9041
vn 0.3662 0.0130 -0.9304
vn 0.3746 0.0169 -0.9270
vn 0.1034 0.0180 -0.9945
vn 0.1061 0.0199 -0.9942
vn -0.1707 -0.5732 -0.8015
vn -0.2681 -0.5426 -0.7961
vn -0.2219 -0.5679 -0.7926
vn -0.1913 -0.5732 -0.7967
vn -0.4074 -0.5709 -0.7128
vn -0.4189 -0.5671 -0.7091
vn -0.5879 -0.5897 -0.5538
vn -0.6664 -0.5578 -0.4948
vn -0.6098 -0.5830 -0.5368
vn -0.5834 -0.5896 -0.5585
vn -0.6895 -0.5653 -0.4528
vn -0.6290 -0.5838 -0.5134
vn -0.7905 -0.5685 -0.2277
vn -0.7980 -0.5637 -0.2134
vn -0.8162 -0.5769 -0.0326
vn -0.8251 -0.5650 0.0099
vn -0.8183 -0.5719 0.0579
vn -0.8158 -0.5774 0.0331
vn -0.7838 -0.5727 0.2402
vn -0.7838 -0.5725 0.2406
vn -0.6911 -0.5832 0.4268
vn -0.6774 -0.5699 0.4650
vn -0.7237 -0.5652 0.3960
vn -0.7503 -0.5806 0.3161
vn -0.7080 -0.5229 0.4747
vn -0.7909 -0.5560 0.2554
vn -0.4226 -0.5242 0.7394
vn -0.4172 -0.5218 0.7441
vn -0.1490 -0.5401 0.8283
vn -0.0790 -0.5187 0.8513
vn -0.1345 -0.5319 0.8361
vn -0.1759 -0.5396 0.8233
vn 0.0964 -0.5300 0.8425
vn 0.0847 -0.5334 0.8416
vn 0.4110 -0.5629 0.7171
vn 0.5616 -0.5075 0.6535
vn 0.4923 -0.5819 0.6473
vn 0.5703 -0.5577 0.6031
vn 0.5407 -0.5873 0.6023
vn 0.5597 -0.5813 0.5906
vn 0.6513 -0.5984 0.4666
vn 0.6867 -0.5829 0.4344
vn 0.6608 -0.5847 0.4706
vn 0.6090 -0.5977 0.5214
vn 0.7308 -0.5495 0.4050
vn 0.5951 -0.5790 0.5573
vn 0.8264 -0.5592 0.0666
vn 0.8370 -0.5461 0.0335
vn 0.8136 -0.5650 -0.1374
vn 0.8141 -0.5575 -0.1625
vn 0.8012 -0.5593 0.2130
vn 0.8263 -0.5516 0.1140
vn 0.7344 -0.5869 -0.3409
vn 0.6380 -0.6149 -0.4634
vn 0.4110 -0.5705 -0.7110
vn 0.4084 -0.5692 -0.7136
vn 0.4121 -0.5872 -0.6967
vn 0.3740 -0.5709 -0.7309
vn 0.3862 -0.5871 -0.7115
vn 0.3861 -0.5871 -0.7115
vn 0.3813 -0.5593 -0.7361
vn 0.5147 -0.5793 -0.6321
vn 0.1099 -0.5548 -0.8247
vn 0.1361 -0.5633 -0.8150
vn -0.2509 -0.8080 -0.5331
vn -0.3167 -0.8007 -0.5086
vn -0.1126 -0.8175 -0.5648
vn 0.0353 -0.7905 -0.6114
vn -0.3007 -0.8084 -0.5060
vn -0.5382 -0.7885 -0.2976
vn -0.5201 -0.7943 -0.3140
vn -0.5159 -0.7949 -0.3195
vn -0.4013 -0.8031 -0.4404
vn -0.5407 -0.8114 -0.2221
vn -0.3931 -0.8169 -0.4221
vn -0.5717 -0.8200 0.0276
vn -0.5152 -0.8458 -0.1388
vn -0.5234 -0.8478 -0.0856
vn -0.5464 -0.8366 0.0387
vn -0.5405 -0.8304 0.1352
vn -0.5409 -0.8410 0.0093
vn -0.5423 -0.6649 -0.5136
vn -0.5419 -0.8209 0.1802
vn -0.5310 -0.8225 0.2036
vn -0.4570 -0.8097 0.3680
vn -0.3558 -0.8032 0.4777
vn -0.5690 -0.8041 0.1724
vn -0.5691 -0.8040 0.1723
vn -0.6386 -0.7658 0.0763
vn -0.4685 -0.8546 0.2240
vn -0.2317 -0.8854 0.4029
vn -0.2893 -0.8784 0.3804
vn 0.0219 -0.8651 0.5012
vn 0.2648 -0.8179 0.5107
vn -0.1196 -0.8797 0.4603
vn -0.2226 -0.8628 0.4539
vn 0.0544 -0.8790 0.4737
vn 0.0910 -0.8807 0.4649
vn 0.4804 -0.8032 0.3522
vn 0.7965 -0.6004 0.0714
vn 0.4354 -0.8336 0.3399
vn 0.6755 -0.7318 0.0903
vn 0.3619 -0.8590 0.3621
vn 0.4306 -0.8580 0.2802
vn 0.4531 -0.8541 0.2553
vn 0.5153 -0.8487 0.1193
vn 0.3355 -0.8498 0.4066
vn 0.2140 -0.7483 0.6278
vn 0.3058 -0.8127 0.4961
vn 0.1594 -0.5883 0.7928
vn 0.4903 -0.8715 0.0107
vn 0.4864 -0.8735 -0.0225
vn 0.4837 -0.8717 -0.0783
vn 0.4694 -0.8746 -0.1211
vn 0.4984 -0.8648 0.0618
vn 0.5884 -0.6087 0.5322
vn 0.4341 -0.8663 -0.2471
vn -0.0159 0.5743 0.8185
vn 0.1472 -0.7985 -0.5837
vn 0.4095 -0.8387 -0.3590
vn 0.2021 -0.7973 -0.5688
vn 0.4775 -0.7756 -0.4128
vn 0.2860 -0.7838 -0.5513
vn 0.0794 -0.7864 -0.6126
vn 0.4689 -0.7621 -0.4465
vn 0.4769 -0.7590 -0.4433
vn 0.1196 -0.8198 -0.5600
vn 0.0239 -0.8306 -0.5563
vn -0.1424 -0.8409 0.5222
vn -0.3263 -0.8887 0.3220
vn 0.9566 -0.0249 0.2905
vn -0.2044 -0.7935 0.5732
vn -0.5286 -0.5955 0.6050
vn -0.2209 -0.9736 -0.0567
vn 0.8474 -0.1172 0.5178
vn -0.8903 -0.4553 0.0080
vn -0.2159 -0.9266 -0.3078
vn 0.7544 -0.2494 0.6072
vn 0.7859 -0.3706 0.4949
vn 0.7087 -0.6531 0.2668
vn 0.2279 -0.9721 0.0556
vn -0.0142 -0.8883 -0.4590
vn 0.4192 -0.6325 -0.6513
vn -0.0512 -0.8615 0.5052
vn -0.4204 -0.8950 0.1496
vn 0.7602 -0.6398 -0.1129
vn -0.7481 -0.5380 0.3885
vn 0.0616 -0.9957 0.0686
vn 0.2314 -0.9650 -0.1233
vn 0.0348 -0.9984 0.0450
vn 0.8323 -0.5357 0.1423
vn 0.2835 -0.9518 0.1173
vn 0.2337 -0.9669 0.1026
vn 0.0608 -0.9958 0.0688
vn -0.5491 -0.7712 -0.3221
vn 0.1008 -0.9803 0.1701
vn 0.0890 -0.9879 -0.1271
vn -0.3206 -0.3419 -0.8834
vn -0.1491 0.3985 -0.9050
vn -0.1345 0.3706 -0.9190
vn -0.2731 0.2842 -0.9191
vn -0.2369 0.3451 -0.9082
vn -0.4861 0.1831 -0.8545
vn -0.4451 0.0763 -0.8922
vn -0.7035 -0.1382 -0.6971
vn -0.6476 -0.2232 -0.7285
vn -0.6953 -0.3950 -0.6005
vn -0.6897 -0.2699 -0.6719
vn -0.7030 -0.5427 -0.4596
vn -0.7268 -0.4384 -0.5287
vn -0.7180 -0.6645 -0.2072
vn -0.7461 -0.6192 -0.2447
vn -0.7261 -0.6871 -0.0257
vn -0.7202 -0.6930 -0.0314
vn -0.7273 -0.6845 0.0500
vn -0.7193 -0.6923 0.0575
vn -0.7169 -0.6612 0.2210
vn -0.7451 -0.6143 0.2599
vn -0.7100 -0.5528 0.4363
vn -0.7320 -0.4599 0.5027
vn -0.7860 -0.4327 0.4416
vn -0.7415 -0.4743 0.4746
vn -0.7869 -0.2562 0.5614
vn -0.7297 -0.3480 0.5886
vn -0.4839 0.1849 0.8554
vn -0.4439 0.0658 0.8937
vn -0.1979 0.3169 0.9276
vn -0.1720 0.3653 0.9148
vn -0.1344 0.3991 0.9070
vn -0.1199 0.3767 0.9185
vn 0.0981 0.4062 0.9085
vn 0.0878 0.3812 0.9203
vn 0.4185 0.2849 0.8624
vn 0.3887 0.2083 0.8975
vn 0.5691 0.1042 0.8156
vn 0.5244 0.0314 0.8509
vn 0.6630 -0.0807 0.7442
vn 0.6065 -0.1730 0.7760
vn 0.7587 -0.3442 0.5531
vn 0.6983 -0.4181 0.5810
vn 0.6978 -0.5221 0.4904
vn 0.7089 -0.4323 0.5574
vn 0.6874 -0.6128 0.3899
vn 0.7131 -0.5447 0.4413
vn 0.7172 -0.6945 0.0579
vn 0.7268 -0.6837 0.0656
vn 0.7143 -0.6887 -0.1240
vn 0.7265 -0.6728 -0.1401
vn 0.6863 -0.7007 0.1953
vn 0.6992 -0.6810 0.2174
vn 0.7494 -0.5631 -0.3482
vn 0.6959 -0.6161 -0.3691
vn 0.5116 -0.2322 -0.8272
vn 0.4867 -0.0451 -0.8724
vn 0.5494 -0.1012 -0.8294
vn 0.5113 0.0552 -0.8576
vn 0.4822 0.0760 -0.8727
vn 0.4281 0.1991 -0.8815
vn 0.3833 0.2944 -0.8754
vn 0.3523 0.2373 -0.9053
vn 0.1042 0.4059 -0.9080
vn 0.0936 0.3787 -0.9208
# 286 vertex normals

vt 0.0000 0.5625 0.0000
vt 0.0313 0.5625 0.0000
vt 0.0625 0.5625 0.0000
vt 0.0938 0.5625 0.0000
vt 0.1250 0.5625 0.0000
vt 0.1563 0.5625 0.0000
vt 0.1875 0.5625 0.0000
vt 0.2187 0.5625 0.0000
vt 0.2500 0.5625 0.0000
vt 0.2812 0.5625 0.0000
vt 0.3125 0.5625 0.0000
vt 0.3437 0.5625 0.0000
vt 0.3750 0.5625 0.0000
vt 0.4063 0.5625 0.0000
vt 0.4375 0.5625 0.0000
vt 0.4688 0.5625 0.0000
vt 0.5000 0.5625 0.0000
vt 0.5313 0.5625 0.0000
vt 0.5625 0.5625 0.0000
vt 0.5938 0.5625 0.0000
vt 0.6250 0.5625 0.0000
vt 0.6563 0.5625 0.0000
vt 0.6875 0.5625 0.0000
vt 0.7188 0.5625 0.0000
vt 0.7500 0.5625 0.0000
vt 0.7813 0.5625 0.0000
vt 0.8125 0.5625 0.0000
vt 0.8438 0.5625 0.0000
vt 0.8750 0.5625 0.0000
vt 0.9063 0.5625 0.0000
vt 0.9375 0.5625 0.0000
vt 0.9688 0.5625 0.0000
vt 1.0000 0.5625 0.0000
# 33 texture coords

g Sphere001
usemtl wire_006135006
s off
f 1/1/1 2/1/1 3/2/1 
f 3/2/2 4/2/2 1/1/2 
f 5/3/3 4/2/3 3/2/3 
f 3/2/4 6/3/4 5/3/4 
f 5/3/5 6/3/5 7/4/5 
f 7/4/6 8/4/6 5/3/6 
f 8/4/7 7/4/7 9/5/7 
f 9/5/8 10/5/8 8/4/8 
f 11/6/9 10/5/9 9/5/9 
f 9/5/10 12/6/10 11/6/10 
f 13/7/11 11/6/11 12/6/11 
f 12/6/12 14/7/12 13/7/12 
f 13/7/13 14/7/13 15/8/13 
f 15/8/14 16/8/14 13/7/14 
f 16/8/15 15/8/15 17/9/15 
f 17/9/16 18/9/16 16/8/16 
f 19/10/17 18/9/17 17/9/17 
f 17/9/18 20/10/18 19/10/18 
f 19/10/19 20/10/19 21/11/19 
f 21/11/20 22/11/20 19/10/20 
f 22/11/21 21/11/21 23/12/21 
f 23/12/22 24/12/22 22/11/22 
f 25/13/23 24/12/23 23/12/23 
f 23/12/24 26/13/24 25/13/24 
f 27/14/25 25/13/25 26/13/25 
f 26/13/26 28/14/26 27/14/26 
f 29/15/27 27/14/27 28/14/27 
f 28/14/28 30/15/28 29/15/28 
f 29/15/29 30/15/29 31/16/29 
f 31/16/30 32/16/30 29/15/30 
f 33/17/31 32/16/31 31/16/31 
f 31/16/32 34/17/32 33/17/32 
f 33/17/33 34/17/33 35/18/33 
f 35/18/34 36/18/34 33/17/34 
f 36/18/35 35/18/35 37/19/35 
f 37/19/36 38/19/36 36/18/36 
f 38/19/37 37/19/37 39/20/37 
f 39/20/38 40/20/38 38/19/38 
f 40/20/39 39/20/39 41/21/39 
f 41/21/40 42/21/40 40/20/40 
f 42/21/41 41/21/41 43/22/41 
f 43/22/42 44/22/42 42/21/42 
f 45/23/43 44/22/43 43/22/43 
f 43/22/44 46/23/44 45/23/44 
f 47/24/45 45/23/45 46/23/45 
f 46/23/46 48/24/46 47/24/46 
f 47/24/47 48/24/47 49/25/47 
f 49/25/48 50/25/48 47/24/48 
f 50/25/49 49/25/49 51/26/49 
f 51/26/50 52/26/50 50/25/50 
f 53/27/51 52/26/51 51/26/51 
f 51/26/52 54/27/52 53/27/52 
f 55/28/53 53/27/53 54/27/53 
f 54/27/54 56/28/54 55/28/54 
f 55/28/55 56/28/55 57/29/55 
f 57/29/56 58/29/56 55/28/56 
f 58/29/57 57/29/57 59/30/57 
f 59/30/58 60/30/58 58/29/58 
f 60/30/59 59/30/59 61/31/59 
f 61/31/60 62/31/60 60/30/60 
f 63/32/61 62/31/61 61/31/61 
f 61/31/62 64/32/62 63/32/62 
f 1/33/63 63/32/63 64/32/63 
f 64/32/64 2/33/64 1/33/64 
f 65/2/65 66/2/65 67/1/65 
f 67/1/66 68/1/66 65/2/66 
f 69/3/67 70/3/67 66/2/67 
f 66/2/68 65/2/68 69/3/68 
f 71/4/69 72/4/69 70/3/69 
f 70/3/70 69/3/70 71/4/70 
f 73/5/71 74/5/71 72/4/71 
f 72/4/72 71/4/72 73/5/72 
f 75/6/73 76/6/73 74/5/73 
f 74/5/74 73/5/74 75/6/74 
f 77/7/75 78/7/75 76/6/75 
f 76/6/76 75/6/76 77/7/76 
f 79/8/77 80/8/77 78/7/77 
f 78/7/78 77/7/78 79/8/78 
f 81/9/79 82/9/79 80/8/79 
f 80/8/80 79/8/80 81/9/80 
f 83/10/81 84/10/81 82/9/81 
f 82/9/82 81/9/82 83/10/82 
f 85/11/83 86/11/83 84/10/83 
f 84/10/84 83/10/84 85/11/84 
f 87/12/85 88/12/85 86/11/85 
f 86/11/86 85/11/86 87/12/86 
f 89/13/87 90/13/87 88/12/87 
f 88/12/88 87/12/88 89/13/88 
f 91/14/89 92/14/89 90/13/89 
f 90/13/90 89/13/90 91/14/90 
f 93/15/91 94/15/91 92/14/91 
f 92/14/92 91/14/92 93/15/92 
f 95/16/93 96/16/93 94/15/93 
f 94/15/94 93/15/94 95/16/94 
f 97/17/95 98/17/95 96/16/95 
f 96/16/96 95/16/96 97/17/96 
f 99/18/97 100/18/97 98/17/97 
f 98/17/98 97/17/98 99/18/98 
f 101/19/99 102/19/99 100/18/99 
f 100/18/100 99/18/100 101/19/100 
f 103/20/101 104/20/101 102/19/101 
f 102/19/102 101/19/102 103/20/102 
f 105/21/103 106/21/103 104/20/103 
f 104/20/104 103/20/104 105/21/104 
f 107/22/105 108/22/105 106/21/105 
f 106/21/106 105/21/106 107/22/106 
f 109/23/107 110/23/107 108/22/107 
f 108/22/108 107/22/108 109/23/108 
f 111/24/109 112/24/109 110/23/109 
f 110/23/110 109/23/110 111/24/110 
f 113/25/111 114/25/111 112/24/111 
f 112/24/112 111/24/112 113/25/112 
f 115/26/113 116/26/113 114/25/113 
f 114/25/114 113/25/114 115/26/114 
f 117/27/115 118/27/115 116/26/115 
f 116/26/116 115/26/116 117/27/116 
f 119/28/117 118/27/117 117/27/117 
f 117/27/118 120/28/118 119/28/118 
f 121/29/119 122/29/119 119/28/119 
f 119/28/120 120/28/120 121/29/120 
f 123/30/121 124/30/121 122/29/121 
f 122/29/122 121/29/122 123/30/122 
f 125/31/123 126/31/123 124/30/123 
f 124/30/124 123/30/124 125/31/124 
f 127/32/125 128/32/125 126/31/125 
f 126/31/126 125/31/126 127/32/126 
f 68/33/127 67/33/127 128/32/127 
f 128/32/128 127/32/128 68/33/128 
f 65/2/129 68/1/129 129/1/129 
f 129/1/130 130/2/130 65/2/130 
f 69/3/131 65/2/131 130/2/131 
f 130/2/132 131/3/132 69/3/132 
f 71/4/133 69/3/133 131/3/133 
f 131/3/134 132/4/134 71/4/134 
f 73/5/135 71/4/135 132/4/135 
f 132/4/136 133/5/136 73/5/136 
f 75/6/137 73/5/137 133/5/137 
f 133/5/138 134/6/138 75/6/138 
f 77/7/139 75/6/139 134/6/139 
f 134/6/140 135/7/140 77/7/140 
f 79/8/141 77/7/141 135/7/141 
f 135/7/142 136/8/142 79/8/142 
f 81/9/143 79/8/143 136/8/143 
f 136/8/144 137/9/144 81/9/144 
f 83/10/145 81/9/145 137/9/145 
f 137/9/146 138/10/146 83/10/146 
f 85/11/147 83/10/147 138/10/147 
f 138/10/148 139/11/148 85/11/148 
f 87/12/149 85/11/149 139/11/149 
f 139/11/150 140/12/150 87/12/150 
f 89/13/151 87/12/151 140/12/151 
f 140/12/152 141/13/152 89/13/152 
f 91/14/153 89/13/153 141/13/153 
f 141/13/154 142/14/154 91/14/154 
f 93/15/155 91/14/155 142/14/155 
f 142/14/156 143/15/156 93/15/156 
f 95/16/157 93/15/157 143/15/157 
f 143/15/158 144/16/158 95/16/158 
f 97/17/159 95/16/159 144/16/159 
f 144/16/160 145/17/160 97/17/160 
f 99/18/161 97/17/161 145/17/161 
f 145/17/162 146/18/162 99/18/162 
f 101/19/163 99/18/163 146/18/163 
f 146/18/164 147/19/164 101/19/164 
f 103/20/165 101/19/165 147/19/165 
f 147/19/166 148/20/166 103/20/166 
f 105/21/167 103/20/167 148/20/167 
f 148/20/168 149/21/168 105/21/168 
f 107/22/169 105/21/169 149/21/169 
f 149/21/170 150/22/170 107/22/170 
f 109/23/171 107/22/171 150/22/171 
f 150/22/172 151/23/172 109/23/172 
f 111/24/173 109/23/173 151/23/173 
f 151/23/174 152/24/174 111/24/174 
f 113/25/175 111/24/175 152/24/175 
f 152/24/176 153/25/176 113/25/176 
f 115/26/177 113/25/177 153/25/177 
f 153/25/178 154/26/178 115/26/178 
f 117/27/179 115/26/179 154/26/179 
f 154/26/180 155/27/180 117/27/180 
f 156/28/181 120/28/181 117/27/181 
f 117/27/182 155/27/182 156/28/182 
f 121/29/183 120/28/183 156/28/183 
f 156/28/184 157/29/184 121/29/184 
f 123/30/185 121/29/185 157/29/185 
f 157/29/186 158/30/186 123/30/186 
f 125/31/187 123/30/187 158/30/187 
f 158/30/188 159/31/188 125/31/188 
f 127/32/189 125/31/189 159/31/189 
f 159/31/190 160/32/190 127/32/190 
f 68/33/191 127/32/191 160/32/191 
f 160/32/192 129/33/192 68/33/192 
f 129/1/193 160/32/193 159/31/193 
f 159/31/194 158/30/194 157/29/194 
f 156/28/195 155/27/195 154/26/195 
f 157/29/196 156/28/196 154/26/196 
f 159/31/197 157/29/197 154/26/197 
f 154/26/198 153/25/198 152/24/198 
f 152/24/199 151/23/199 150/22/199 
f 154/26/200 152/24/200 150/22/200 
f 150/22/201 149/21/201 148/20/201 
f 148/20/202 147/19/202 146/18/202 
f 150/22/203 148/20/203 146/18/203 
f 154/26/204 150/22/204 146/18/204 
f 159/31/205 154/26/205 146/18/205 
f 146/18/206 145/17/206 144/16/206 
f 144/16/207 143/15/207 142/14/207 
f 146/18/208 144/16/208 142/14/208 
f 142/14/209 141/13/209 140/12/209 
f 140/12/210 139/11/210 138/10/210 
f 142/14/211 140/12/211 138/10/211 
f 146/18/212 142/14/212 138/10/212 
f 146/18/213 138/10/213 137/9/213 
f 159/31/214 146/18/214 137/9/214 
f 137/9/215 136/8/215 135/7/215 
f 135/7/216 134/6/216 133/5/216 
f 137/9/217 135/7/217 133/5/217 
f 159/31/218 137/9/218 133/5/218 
f 133/5/219 132/4/219 131/3/219 
f 159/31/220 133/5/220 131/3/220 
f 129/1/221 159/31/221 131/3/221 
f 129/1/222 131/3/222 130/2/222 
f 2/1/223 67/1/223 66/2/223 
f 66/2/224 3/2/224 2/1/224 
f 66/2/225 70/3/225 6/3/225 
f 6/3/226 3/2/226 66/2/226 
f 6/3/227 70/3/227 72/4/227 
f 72/4/228 7/4/228 6/3/228 
f 7/4/229 72/4/229 74/5/229 
f 74/5/230 9/5/230 7/4/230 
f 74/5/231 76/6/231 12/6/231 
f 12/6/232 9/5/232 74/5/232 
f 76/6/233 78/7/233 14/7/233 
f 14/7/234 12/6/234 76/6/234 
f 78/7/235 80/8/235 15/8/235 
f 15/8/236 14/7/236 78/7/236 
f 15/8/237 80/8/237 82/9/237 
f 82/9/238 17/9/238 15/8/238 
f 82/9/239 84/10/239 20/10/239 
f 20/10/240 17/9/240 82/9/240 
f 20/10/241 84/10/241 86/11/241 
f 86/11/242 21/11/242 20/10/242 
f 21/11/243 86/11/243 88/12/243 
f 88/12/244 23/12/244 21/11/244 
f 88/12/245 90/13/245 26/13/245 
f 26/13/246 23/12/246 88/12/246 
f 90/13/247 92/14/247 28/14/247 
f 28/14/248 26/13/248 90/13/248 
f 92/14/249 94/15/249 30/15/249 
f 30/15/250 28/14/250 92/14/250 
f 30/15/251 94/15/251 96/16/251 
f 96/16/252 31/16/252 30/15/252 
f 96/16/253 98/17/253 34/17/253 
f 34/17/254 31/16/254 96/16/254 
f 34/17/255 98/17/255 100/18/255 
f 100/18/256 35/18/256 34/17/256 
f 35/18/257 100/18/257 102/19/257 
f 102/19/258 37/19/258 35/18/258 
f 37/19/259 102/19/259 104/20/259 
f 104/20/260 39/20/260 37/19/260 
f 39/20/261 104/20/261 106/21/261 
f 106/21/262 41/21/262 39/20/262 
f 41/21/263 106/21/263 108/22/263 
f 108/22/264 43/22/264 41/21/264 
f 108/22/265 110/23/265 46/23/265 
f 46/23/266 43/22/266 108/22/266 
f 110/23/267 112/24/267 48/24/267 
f 48/24/268 46/23/268 110/23/268 
f 112/24/269 114/25/269 49/25/269 
f 49/25/270 48/24/270 112/24/270 
f 49/25/271 114/25/271 116/26/271 
f 116/26/272 51/26/272 49/25/272 
f 116/26/273 118/27/273 54/27/273 
f 54/27/274 51/26/274 116/26/274 
f 118/27/275 119/28/275 56/28/275 
f 56/28/276 54/27/276 118/27/276 
f 56/28/277 119/28/277 122/29/277 
f 122/29/278 57/29/278 56/28/278 
f 57/29/279 122/29/279 124/30/279 
f 124/30/280 59/30/280 57/29/280 
f 59/30/281 124/30/281 126/31/281 
f 126/31/282 61/31/282 59/30/282 
f 126/31/283 128/32/283 64/32/283 
f 64/32/284 61/31/284 126/31/284 
f 128/32/285 67/33/285 2/33/285 
f 2/33/286 64/32/286 128/32/286 
# 286 faces

