# 3ds Max Wavefront OBJ Exporter v0.97b - (c)2007 guruware
# File Created: 12.02.2017 23:59:08

#
# object old_wooden_table
#

v  -650.00 730.00 350.00
v  650.00 730.00 350.00
v  650.00 730.00 -350.00
v  -650.00 730.00 -350.00
v  -650.00 700.00 350.00
v  650.00 700.00 350.00
v  650.00 700.00 -350.00
v  -650.00 700.00 -350.00
v  -625.00 700.00 -325.00
v  -625.00 700.00 -275.00
v  -615.00 700.00 -275.00
v  -615.00 700.00 275.00
v  -625.00 700.00 275.00
v  -625.00 700.00 325.00
v  -575.00 630.00 315.00
v  -575.00 630.00 285.00
v  575.00 630.00 285.00
v  575.00 630.00 315.00
v  585.00 630.00 -275.00
v  615.00 630.00 -275.00
v  615.00 630.00 275.00
v  585.00 630.00 275.00
v  -575.00 630.00 -285.00
v  -575.00 630.00 -315.00
v  575.00 630.00 -315.00
v  575.00 630.00 -285.00
v  625.00 700.00 325.00
v  625.00 700.00 275.00
v  615.00 700.00 275.00
v  615.00 700.00 -275.00
v  625.00 700.00 -275.00
v  625.00 700.00 -325.00
v  -615.00 630.00 -275.00
v  -585.00 630.00 -275.00
v  -585.00 630.00 275.00
v  -615.00 630.00 275.00
v  -585.00 700.00 275.00
v  -585.00 700.00 -275.00
v  -575.00 700.00 -275.00
v  -575.00 700.00 275.00
v  -575.00 700.00 -285.00
v  575.00 700.00 -285.00
v  575.00 700.00 -275.00
v  585.00 700.00 -275.00
v  585.00 700.00 275.00
v  575.00 700.00 275.00
v  -575.00 700.00 285.00
v  575.00 700.00 285.00
v  579.00 0.00 318.34
v  579.00 0.00 279.00
v  618.34 0.00 279.00
v  618.34 0.00 318.34
v  618.34 0.00 -279.00
v  579.00 0.00 -279.00
v  579.00 0.00 -318.34
v  618.34 0.00 -318.34
v  -579.00 0.00 -318.34
v  -579.00 0.00 -279.00
v  -618.34 0.00 -279.00
v  -618.34 0.00 -318.34
v  -618.34 0.00 279.00
v  -579.00 0.00 279.00
v  -579.00 0.00 318.34
v  -618.34 0.00 318.34
v  575.00 700.00 325.00
v  575.00 630.00 325.00
v  625.00 630.00 325.00
v  575.00 700.00 315.00
v  -575.00 700.00 315.00
v  -575.00 700.00 325.00
v  -575.00 630.00 325.00
v  -625.00 630.00 325.00
v  -625.00 630.00 275.00
v  -625.00 630.00 -275.00
v  -625.00 630.00 -325.00
v  -575.00 700.00 -325.00
v  -575.00 630.00 -325.00
v  -575.00 700.00 -315.00
v  575.00 700.00 -315.00
v  575.00 700.00 -325.00
v  575.00 630.00 -325.00
v  625.00 630.00 -325.00
v  625.00 630.00 -275.00
v  625.00 630.00 275.00
v  575.00 630.00 275.00
v  575.00 630.00 -275.00
v  -575.00 630.00 -275.00
v  -575.00 630.00 275.00
# 88 vertices

vn 0.00 1.00 -0.00
vn 0.00 0.00 1.00
vn 1.00 0.00 -0.00
vn 0.00 0.00 -1.00
vn -1.00 0.00 -0.00
vn 0.00 -1.00 -0.00
vn -0.00 0.00 1.00
vn 1.00 0.00 0.00
vn -0.00 0.00 -1.00
vn 0.00 -0.01 -1.00
vn 1.00 -0.01 -0.00
vn 0.00 -0.01 1.00
vn -1.00 -0.01 -0.00
vn -0.00 -0.01 1.00
vn 1.00 -0.01 0.00
# 15 vertex normals

vt 0.02 0.03 0.00
vt 0.02 0.39 0.00
vt 0.01 0.38 0.00
vt 0.01 0.35 0.00
vt 0.03 0.03 0.00
vt 0.69 0.03 0.00
vt 0.69 0.39 0.00
vt 0.03 0.39 0.00
vt 0.03 0.02 0.00
vt 0.69 0.02 0.00
vt 0.07 0.35 0.00
vt 0.07 0.07 0.00
vt 0.71 0.03 0.00
vt 0.71 0.39 0.00
vt 0.64 0.07 0.00
vt 0.64 0.35 0.00
vt 0.69 0.40 0.00
vt 0.03 0.40 0.00
vt 0.07 0.35 0.00
vt 0.07 0.07 0.00
vt 0.64 0.07 0.00
vt 0.64 0.35 0.00
vt 0.07 0.35 0.00
vt 0.07 0.07 0.00
vt 0.03 0.99 0.00
vt 0.00 0.99 0.00
vt 0.64 0.07 0.00
vt 0.00 0.96 0.00
vt 0.19 1.00 0.00
vt 0.18 1.00 0.00
vt 0.64 0.35 0.00
vt 0.18 0.96 0.00
vt 0.79 0.36 0.00
vt 0.76 0.36 0.00
vt 0.77 0.32 0.00
vt 0.90 0.36 0.00
vt 0.95 0.36 0.00
vt 0.91 0.36 0.00
vt 0.00 0.59 0.00
vt 0.00 0.54 0.00
vt 0.50 0.67 0.00
vt 0.50 0.69 0.00
vt 0.58 0.47 0.00
vt 0.58 0.49 0.00
vt 0.22 0.79 0.00
vt 0.22 0.77 0.00
vt 0.03 0.96 0.00
vt 0.10 0.99 0.00
vt 0.58 0.54 0.00
vt 0.00 0.57 0.00
vt 0.19 0.96 0.00
vt 0.88 0.36 0.00
vt 0.94 0.36 0.00
vt 0.50 0.77 0.00
vt 0.50 0.79 0.00
vt 0.79 0.32 0.00
vt 0.74 0.36 0.00
vt 0.74 0.32 0.00
vt 0.00 0.49 0.00
vt 0.00 0.47 0.00
vt 0.21 1.00 0.00
vt 0.16 1.00 0.00
vt 0.22 0.69 0.00
vt 0.22 0.67 0.00
vt 0.09 0.99 0.00
vt 0.58 0.57 0.00
vt 0.06 0.99 0.00
vt 0.50 0.72 0.00
vt 0.22 0.72 0.00
vt 0.16 0.96 0.00
vt 0.58 0.52 0.00
vt 0.00 0.52 0.00
vt 0.84 0.36 0.00
vt 0.50 0.83 0.00
vt 0.22 0.83 0.00
vt 0.94 0.32 0.00
vt 0.58 0.59 0.00
vt 0.52 0.66 0.00
vt 0.52 0.64 0.00
vt 0.53 0.64 0.00
vt 0.53 0.66 0.00
vt 0.53 0.66 0.00
vt 0.52 0.66 0.00
vt 0.52 0.64 0.00
vt 0.53 0.64 0.00
vt 0.53 0.64 0.00
vt 0.53 0.66 0.00
vt 0.52 0.66 0.00
vt 0.52 0.64 0.00
vt 0.52 0.64 0.00
vt 0.53 0.64 0.00
vt 0.53 0.66 0.00
vt 0.52 0.66 0.00
vt 0.00 0.35 0.00
vt 0.00 0.07 0.00
vt 0.01 0.07 0.00
vt 0.01 0.05 0.00
vt 0.68 0.42 0.00
vt 0.05 0.01 0.00
vt 0.07 0.01 0.00
vt 0.72 0.05 0.00
vt 0.72 0.07 0.00
vt 0.65 0.42 0.00
vt 0.07 0.00 0.00
vt 0.65 0.00 0.00
vt 0.65 0.01 0.00
vt 0.68 0.01 0.00
vt 0.65 0.42 0.00
vt 0.07 0.42 0.00
vt 0.07 0.42 0.00
vt 0.05 0.42 0.00
vt 0.72 0.07 0.00
vt 0.72 0.35 0.00
vt 0.72 0.35 0.00
vt 0.72 0.38 0.00
vt 0.05 0.99 0.00
vt 0.05 0.96 0.00
vt 0.06 0.96 0.00
vt 0.09 0.96 0.00
vt 0.10 0.96 0.00
vt 0.08 0.99 0.00
vt 0.07 0.99 0.00
vt 0.07 0.96 0.00
vt 0.08 0.96 0.00
vt 0.20 1.00 0.00
vt 0.20 0.96 0.00
vt 0.03 0.64 0.00
vt 0.05 0.64 0.00
vt 0.01 0.64 0.00
vt 0.21 0.96 0.00
vt 0.07 0.99 0.00
vt 0.07 0.96 0.00
vt 0.18 0.64 0.00
vt 0.20 0.64 0.00
vt 0.07 0.64 0.00
vt 0.10 0.64 0.00
vt 0.58 0.62 0.00
vt 0.00 0.62 0.00
vt 0.88 0.32 0.00
vt 0.90 0.32 0.00
vt 0.85 0.36 0.00
vt 0.85 0.32 0.00
vt 0.88 0.00 0.00
vt 0.90 0.00 0.00
vt 0.86 0.00 0.00
vt 0.91 0.32 0.00
vt 0.92 0.36 0.00
vt 0.92 0.36 0.00
vt 0.92 0.32 0.00
vt 0.92 0.32 0.00
vt 0.92 0.00 0.00
vt 0.95 0.32 0.00
vt 0.93 0.36 0.00
vt 0.93 0.32 0.00
vt 0.95 0.00 0.00
vt 0.79 0.36 0.00
vt 0.79 0.32 0.00
vt 0.81 0.36 0.00
vt 0.81 0.36 0.00
vt 0.81 0.32 0.00
vt 0.81 0.32 0.00
vt 0.79 0.00 0.00
vt 0.81 0.00 0.00
vt 0.83 0.36 0.00
vt 0.83 0.32 0.00
vt 0.84 0.32 0.00
vt 0.82 0.36 0.00
vt 0.82 0.32 0.00
vt 0.83 0.00 0.00
vt 0.14 1.00 0.00
vt 0.13 1.00 0.00
vt 0.13 0.96 0.00
vt 0.14 0.96 0.00
vt 0.12 1.00 0.00
vt 0.11 1.00 0.00
vt 0.11 0.96 0.00
vt 0.12 0.96 0.00
vt 0.12 0.64 0.00
vt 0.14 0.64 0.00
vt 0.16 0.64 0.00
vt 0.77 0.00 0.00
vt 0.75 0.00 0.00
vt 0.22 0.74 0.00
vt 0.50 0.74 0.00
vt 0.00 0.44 0.00
vt 0.58 0.44 0.00
vt 0.22 0.64 0.00
vt 0.50 0.64 0.00
# 188 texture coords

g old_wooden_table
s off
f 1/5/1 2/6/1 3/7/1 
f 3/7/1 4/8/1 1/5/1 
f 5/9/2 6/10/2 2/6/2 
f 2/6/2 1/5/2 5/9/2 
f 6/13/3 7/14/3 3/7/3 
f 3/7/3 2/6/3 6/13/3 
f 7/17/4 8/18/4 4/8/4 
f 4/8/4 3/7/4 7/17/4 
f 8/2/5 5/1/5 1/5/5 
f 1/5/5 4/8/5 8/2/5 
f 5/1/6 8/2/6 9/3/6 
f 5/1/6 9/3/6 10/4/6 
f 5/1/6 10/4/6 11/94/6 
f 5/1/6 11/94/6 12/95/6 
f 5/1/6 12/95/6 13/96/1 
f 5/1/6 13/96/1 14/97/6 
f 15/39/6 16/50/6 17/66/6 
f 17/66/6 18/77/6 15/39/6 
f 19/41/6 20/42/6 21/63/6 
f 21/63/6 22/64/6 19/41/6 
f 23/43/6 24/44/6 25/59/6 
f 25/59/6 26/60/6 23/43/6 
f 6/13/6 27/101/6 28/102/6 
f 28/102/6 29/112/6 30/113/6 
f 6/13/6 28/102/6 30/113/6 
f 6/13/6 30/113/6 31/114/6 
f 7/14/6 6/13/6 31/114/6 
f 7/14/6 31/114/6 32/115/6 
f 33/45/6 34/46/6 35/54/6 
f 35/54/6 36/55/6 33/45/6 
f 37/15/6 38/16/6 39/19/6 
f 40/12/6 37/15/6 39/19/6 
f 39/19/6 41/20/6 42/21/6 
f 39/19/6 42/21/6 43/22/6 
f 43/22/6 44/23/6 45/24/6 
f 43/22/6 45/24/6 46/27/6 
f 39/19/6 43/22/6 46/27/6 
f 40/12/6 39/19/6 46/27/6 
f 47/11/6 40/12/6 46/27/6 
f 47/11/6 46/27/6 48/31/6 
f 49/78/6 50/79/6 51/80/6 
f 51/80/6 52/81/6 49/78/6 
f 53/82/6 54/83/6 55/84/6 
f 55/84/6 56/85/6 53/82/6 
f 57/86/6 58/87/6 59/88/6 
f 59/88/6 60/89/6 57/86/6 
f 61/90/6 62/91/6 63/92/6 
f 63/92/6 64/93/6 61/90/6 
f 27/25/2 65/26/2 66/28/2 
f 66/28/2 67/47/2 27/25/2 
f 65/48/5 68/65/5 18/119/5 
f 18/119/5 66/120/5 65/48/5 
f 68/137/2 69/138/2 15/39/2 
f 15/39/2 18/77/2 68/137/2 
f 69/38/3 70/36/3 71/140/3 
f 71/140/3 15/146/3 69/38/3 
f 70/36/2 14/52/2 72/139/2 
f 72/139/2 71/140/2 70/36/2 
f 14/52/5 13/141/5 73/142/5 
f 73/142/5 72/139/5 14/52/5 
f 13/37/4 12/53/4 36/76/4 
f 36/76/4 73/152/4 13/37/4 
f 12/74/5 11/75/5 33/45/5 
f 33/45/5 36/55/5 12/74/5 
f 11/156/7 10/33/7 74/56/7 
f 74/56/7 33/157/7 11/156/7 
f 10/33/5 9/34/5 75/35/5 
f 75/35/5 74/56/5 10/33/5 
f 9/34/4 76/57/4 77/58/4 
f 77/58/4 75/35/4 9/34/4 
f 76/73/8 78/164/8 24/165/8 
f 24/165/8 77/166/8 76/73/8 
f 78/71/9 79/72/9 25/59/9 
f 25/59/9 24/44/9 78/71/9 
f 79/29/5 80/30/5 81/32/5 
f 81/32/5 25/51/5 79/29/5 
f 80/30/4 32/62/4 82/70/4 
f 82/70/4 81/32/4 80/30/4 
f 32/62/3 31/170/3 83/173/3 
f 83/173/3 82/70/3 32/62/3 
f 31/170/2 30/171/2 20/172/2 
f 20/172/2 83/173/2 31/170/2 
f 30/68/3 29/69/3 21/63/3 
f 21/63/3 20/42/3 30/68/3 
f 29/67/4 28/116/4 84/117/4 
f 84/117/4 21/118/4 29/67/4 
f 28/116/3 27/25/3 67/47/3 
f 67/47/3 84/117/3 28/116/3 
f 48/121/5 46/122/5 85/123/5 
f 85/123/5 17/124/5 48/121/5 
f 46/122/4 45/131/4 22/132/4 
f 22/132/4 85/123/4 46/122/4 
f 45/187/5 44/188/5 19/41/5 
f 19/41/5 22/64/5 45/187/5 
f 44/174/2 43/175/2 86/176/2 
f 86/176/2 19/177/2 44/174/2 
f 43/61/5 42/125/5 26/126/5 
f 26/126/5 86/130/5 43/61/5 
f 42/185/7 41/186/7 23/43/7 
f 23/43/7 26/60/7 42/185/7 
f 41/167/8 39/158/8 87/161/8 
f 87/161/8 23/168/8 41/167/8 
f 39/158/7 38/159/7 34/160/7 
f 34/160/7 87/161/7 39/158/7 
f 38/183/3 37/184/3 35/54/3 
f 35/54/3 34/46/3 38/183/3 
f 37/153/4 40/147/4 88/150/4 
f 88/150/4 35/154/4 37/153/4 
f 40/147/3 47/148/3 16/149/3 
f 16/149/3 88/150/3 40/147/3 
f 47/40/9 48/49/9 17/66/9 
f 17/66/9 16/50/9 47/40/9 
f 21/118/10 84/117/10 51/128/10 
f 22/132/10 21/118/10 51/128/10 
f 85/123/10 22/132/10 51/128/10 
f 85/123/10 51/128/10 50/135/10 
f 84/117/11 67/47/11 52/127/11 
f 52/127/11 51/128/11 84/117/11 
f 67/47/12 66/28/12 49/129/12 
f 49/129/12 52/127/12 67/47/12 
f 17/124/13 85/123/13 50/135/13 
f 18/119/13 17/124/13 50/135/13 
f 18/119/13 50/135/13 49/136/13 
f 66/120/13 18/119/13 49/136/13 
f 25/51/13 81/32/13 55/133/13 
f 26/126/13 25/51/13 55/133/13 
f 86/130/13 26/126/13 55/133/13 
f 86/130/13 55/133/13 54/134/13 
f 81/32/10 82/70/10 56/180/10 
f 56/180/10 55/133/10 81/32/10 
f 82/70/11 83/173/11 53/179/11 
f 53/179/11 56/180/11 82/70/11 
f 19/177/12 86/176/12 54/178/12 
f 20/172/12 19/177/12 54/178/12 
f 20/172/12 54/178/12 53/179/12 
f 83/173/12 20/172/12 53/179/12 
f 33/157/14 74/56/14 59/162/14 
f 34/160/12 33/157/12 59/162/12 
f 87/161/14 34/160/14 59/162/14 
f 87/161/14 59/162/14 58/163/14 
f 74/56/13 75/35/13 60/181/13 
f 60/181/13 59/162/13 74/56/13 
f 75/35/10 77/58/10 57/182/10 
f 57/182/10 60/181/10 75/35/10 
f 23/168/15 87/161/15 58/163/15 
f 24/165/11 23/168/11 58/163/11 
f 24/165/15 58/163/15 57/169/15 
f 77/166/15 24/165/15 57/169/15 
f 71/140/12 72/139/12 64/143/12 
f 64/143/12 63/144/12 71/140/12 
f 72/139/13 73/142/13 61/145/13 
f 61/145/13 64/143/13 72/139/13 
f 35/154/10 88/150/10 62/151/10 
f 36/76/10 35/154/10 62/151/10 
f 73/152/10 36/76/10 62/151/10 
f 73/152/10 62/151/10 61/155/10 
f 15/146/11 71/140/11 63/144/11 
f 16/149/11 15/146/11 63/144/11 
f 16/149/11 63/144/11 62/151/11 
f 88/150/11 16/149/11 62/151/11 
f 70/100/6 69/104/6 68/105/6 
f 65/106/1 27/107/6 6/10/6 
f 68/105/6 65/106/1 6/10/6 
f 70/100/6 68/105/6 6/10/6 
f 14/99/6 70/100/6 6/10/6 
f 14/99/6 6/10/6 5/9/6 
f 80/103/6 79/108/6 78/109/6 
f 76/110/1 9/111/6 8/18/6 
f 78/109/6 76/110/1 8/18/6 
f 80/103/6 78/109/6 8/18/6 
f 32/98/6 80/103/6 8/18/6 
f 32/98/6 8/18/6 7/17/6 
# 172 faces

